shantell_digital-normalized.ufo
<glyph name="eight" format="2">
	<unicode hex="0038"/>
	<advance width="700"/>
	<image fileName="zero.png" xScale="2.3662938837" yScale="2.3662938837" xOffset="-7182.8248343698" yOffset="-192.644631698" color="0,0,0,0.16492"/>
	<outline>
		<contour>
			<point x="416" y="590" type="curve" smooth="yes"/>
			<point x="258.5100768964" y="593.6839748094"/>
			<point x="183.9999259223" y="576.9976295138"/>
			<point x="183" y="545" type="curve" smooth="yes"/>
			<point x="182" y="505"/>
			<point x="249" y="489"/>
			<point x="388" y="422" type="curve" smooth="yes"/>
			<point x="619" y="310"/>
			<point x="623" y="252"/>
			<point x="623" y="200" type="curve" smooth="yes"/>
			<point x="621.9807709584" y="92.9809506368"/>
			<point x="527" y="-12"/>
			<point x="276" y="-12" type="curve" smooth="yes"/>
			<point x="139" y="-12"/>
			<point x="91" y="51"/>
			<point x="91" y="125" type="curve" smooth="yes"/>
			<point x="92.0153785106" y="175.7689255291"/>
			<point x="112.9186334708" y="242.1944922792"/>
			<point x="310" y="389" type="curve" smooth="yes"/>
			<point x="397.437651325" y="453.6278292402"/>
			<point x="475.7768901975" y="550.4220694392"/>
			<point x="492" y="601" type="curve" smooth="yes"/>
			<point x="502" y="632"/>
			<point x="536" y="650"/>
			<point x="567" y="640" type="curve" smooth="yes"/>
			<point x="598" y="630"/>
			<point x="616" y="596"/>
			<point x="606" y="565" type="curve" smooth="yes"/>
			<point x="585.7582981992" y="500.4193323497"/>
			<point x="493.3427508116" y="375.5472118086"/>
			<point x="382" y="293" type="curve" smooth="yes"/>
			<point x="232.7032274317" y="181.619868084"/>
			<point x="216.1376210353" y="152.2385893174"/>
			<point x="209" y="88" type="curve" smooth="yes"/>
			<point x="204" y="50"/>
			<point x="146" y="147"/>
			<point x="186" y="131" type="curve" smooth="yes"/>
			<point x="218" y="118"/>
			<point x="246" y="108"/>
			<point x="276" y="108" type="curve" smooth="yes"/>
			<point x="401" y="108"/>
			<point x="501.9555676353" y="139.3340581165"/>
			<point x="503" y="202" type="curve" smooth="yes"/>
			<point x="504" y="236"/>
			<point x="451" y="259"/>
			<point x="336" y="314" type="curve" smooth="yes"/>
			<point x="95" y="430"/>
			<point x="62" y="471"/>
			<point x="63" y="547" type="curve" smooth="yes"/>
			<point x="63.9999951073" y="649.9994960549"/>
			<point x="164.2859711434" y="715.6801648251"/>
			<point x="418" y="710" type="curve" smooth="yes"/>
			<point x="451" y="709"/>
			<point x="478" y="681"/>
			<point x="477" y="649" type="curve" smooth="yes"/>
			<point x="476" y="616"/>
			<point x="448" y="589"/>
		</contour>
	</outline>
</glyph>
<glyph name="nine" format="2">
	<unicode hex="0039"/>
	<advance width="700"/>
	<image fileName="zero.png" xScale="2.3662938837" yScale="2.3662938837" xOffset="-7800.8248343698" yOffset="-227.644631698" color="0,0,0,0.16492"/>
	<outline>
		<contour>
			<point x="442" y="578" type="curve" smooth="yes"/>
			<point x="465" y="578"/>
			<point x="488" y="592"/>
			<point x="497" y="615" type="curve" smooth="yes"/>
			<point x="510" y="645"/>
			<point x="495" y="681"/>
			<point x="465" y="693" type="curve" smooth="yes"/>
			<point x="443" y="703"/>
			<point x="405" y="710"/>
			<point x="369" y="710" type="curve" smooth="yes"/>
			<point x="174" y="710"/>
			<point x="62" y="583"/>
			<point x="62" y="478" type="curve" smooth="yes"/>
			<point x="62" y="368"/>
			<point x="155" y="278"/>
			<point x="287" y="278" type="curve" smooth="yes"/>
			<point x="343" y="278"/>
			<point x="455" y="292"/>
			<point x="507" y="354" type="curve" smooth="yes"/>
			<point x="535" y="387"/>
			<point x="483" y="404"/>
			<point x="483" y="356" type="curve" smooth="yes"/>
			<point x="483" y="222"/>
			<point x="486" y="116"/>
			<point x="501" y="39" type="curve" smooth="yes"/>
			<point x="507" y="11"/>
			<point x="533" y="-9"/>
			<point x="561" y="-9" type="curve" smooth="yes"/>
			<point x="604" y="-9"/>
			<point x="626" y="24"/>
			<point x="619" y="63" type="curve" smooth="yes"/>
			<point x="593" y="208"/>
			<point x="621" y="421"/>
			<point x="609" y="606" type="curve" smooth="yes"/>
			<point x="606" y="644"/>
			<point x="578" y="662"/>
			<point x="549" y="662" type="curve" smooth="yes"/>
			<point x="519" y="662"/>
			<point x="489" y="641"/>
			<point x="489" y="602" type="curve" smooth="yes"/>
			<point x="489" y="458"/>
			<point x="389" y="398"/>
			<point x="287" y="398" type="curve" smooth="yes"/>
			<point x="230" y="398"/>
			<point x="182" y="430"/>
			<point x="182" y="478" type="curve" smooth="yes"/>
			<point x="182" y="539"/>
			<point x="273" y="590"/>
			<point x="369" y="590" type="curve" smooth="yes"/>
			<point x="414" y="590"/>
			<point x="421" y="578"/>
		</contour>
	</outline>
</glyph>
<glyph name="A" format="2">
	<unicode hex="0041"/>
	<advance width="720"/>
	<outline>
		<contour>
			<point x="615" y="-59" type="curve" smooth="yes"/>
			<point x="648" y="-59"/>
			<point x="675" y="-32"/>
			<point x="675" y="1" type="curve" smooth="yes"/>
			<point x="675" y="12"/>
			<point x="672" y="23"/>
			<point x="666" y="32" type="curve" smooth="yes"/>
			<point x="605" y="136"/>
			<point x="590" y="271"/>
			<point x="576" y="397" type="curve" smooth="yes"/>
			<point x="553" y="611"/>
			<point x="522" y="718"/>
			<point x="398" y="718" type="curve" smooth="yes"/>
			<point x="316" y="718"/>
			<point x="244" y="653"/>
			<point x="186" y="536" type="curve"/>
			<point x="213" y="536" type="line"/>
			<point x="208" y="575"/>
			<point x="206" y="612"/>
			<point x="147" y="612" type="curve" smooth="yes"/>
			<point x="114" y="612"/>
			<point x="87" y="585"/>
			<point x="87" y="552" type="curve" smooth="yes"/>
			<point x="87" y="385"/>
			<point x="57" y="245"/>
			<point x="57" y="51" type="curve" smooth="yes"/>
			<point x="57" y="6"/>
			<point x="87" y="-8"/>
			<point x="125" y="-8" type="curve" smooth="yes"/>
			<point x="161" y="-9"/>
			<point x="179" y="24"/>
			<point x="182" y="48" type="curve" smooth="yes"/>
			<point x="232" y="372"/>
			<point x="324" y="598"/>
			<point x="398" y="598" type="curve" smooth="yes"/>
			<point x="423" y="598"/>
			<point x="438" y="559"/>
			<point x="457" y="384" type="curve" smooth="yes"/>
			<point x="471" y="258"/>
			<point x="489" y="98"/>
			<point x="563" y="-29" type="curve" smooth="yes"/>
			<point x="573" y="-47"/>
			<point x="593" y="-59"/>
		</contour>
		<contour>
			<point x="75" y="206" type="curve" smooth="yes"/>
			<point x="83" y="206"/>
			<point x="91" y="208"/>
			<point x="98" y="211" type="curve" smooth="yes"/>
			<point x="268" y="276"/>
			<point x="413" y="308"/>
			<point x="648" y="312" type="curve" smooth="yes"/>
			<point x="681" y="313"/>
			<point x="707" y="339"/>
			<point x="707" y="372" type="curve" smooth="yes"/>
			<point x="707" y="405"/>
			<point x="680" y="432"/>
			<point x="647" y="432" type="curve" smooth="yes"/>
			<point x="647" y="432"/>
			<point x="646" y="432"/>
			<point x="646" y="432" type="curve" smooth="yes"/>
			<point x="399" y="427"/>
			<point x="236" y="392"/>
			<point x="55" y="322" type="curve" smooth="yes"/>
			<point x="32" y="314"/>
			<point x="15" y="292"/>
			<point x="15" y="266" type="curve" smooth="yes"/>
			<point x="15" y="233"/>
			<point x="42" y="206"/>
		</contour>
	</outline>
</glyph>
<glyph name="B" format="2">
	<unicode hex="0042"/>
	<advance width="600"/>
	<outline>
		<contour>
			<point x="215" y="606" type="curve" smooth="yes"/>
			<point x="191" y="476"/>
			<point x="178" y="400"/>
			<point x="178" y="271" type="curve" smooth="yes"/>
			<point x="178" y="184"/>
			<point x="201" y="109"/>
			<point x="258" y="109" type="curve" smooth="yes"/>
			<point x="312" y="109"/>
			<point x="393" y="142"/>
			<point x="393" y="195" type="curve" smooth="yes"/>
			<point x="393" y="251"/>
			<point x="270" y="262"/>
			<point x="177" y="262" type="curve" smooth="yes"/>
			<point x="138" y="262"/>
			<point x="117" y="292"/>
			<point x="117" y="322" type="curve" smooth="yes"/>
			<point x="117" y="349"/>
			<point x="134" y="376"/>
			<point x="169" y="381" type="curve" smooth="yes"/>
			<point x="319" y="402"/>
			<point x="459" y="425"/>
			<point x="459" y="510" type="curve" smooth="yes"/>
			<point x="459" y="572"/>
			<point x="357" y="591"/>
			<point x="248" y="591" type="curve" smooth="yes"/>
			<point x="192" y="591"/>
			<point x="109" y="582"/>
			<point x="102" y="582" type="curve" smooth="yes"/>
			<point x="68" y="582"/>
			<point x="40" y="599"/>
			<point x="40" y="640" type="curve" smooth="yes"/>
			<point x="40" y="670"/>
			<point x="63" y="698"/>
			<point x="93" y="702" type="curve" smooth="yes"/>
			<point x="149" y="709"/>
			<point x="199" y="712"/>
			<point x="243" y="712" type="curve" smooth="yes"/>
			<point x="493" y="712"/>
			<point x="579" y="614"/>
			<point x="579" y="510" type="curve" smooth="yes"/>
			<point x="579" y="399"/>
			<point x="475" y="316"/>
			<point x="271" y="305" type="curve" smooth="yes"/>
			<point x="212" y="302"/>
			<point x="219" y="353"/>
			<point x="269" y="353" type="curve" smooth="yes"/>
			<point x="437" y="353"/>
			<point x="513" y="277"/>
			<point x="513" y="195" type="curve" smooth="yes"/>
			<point x="513" y="94"/>
			<point x="386" y="-11"/>
			<point x="258" y="-11" type="curve" smooth="yes"/>
			<point x="159" y="-11"/>
			<point x="58" y="54"/>
			<point x="58" y="271" type="curve" smooth="yes"/>
			<point x="58" y="409"/>
			<point x="71" y="490"/>
			<point x="97" y="628" type="curve" smooth="yes"/>
			<point x="102" y="656"/>
			<point x="128" y="677"/>
			<point x="156" y="677" type="curve" smooth="yes"/>
			<point x="186" y="677"/>
			<point x="224" y="643"/>
		</contour>
	</outline>
</glyph>
<glyph name="C" format="2">
	<unicode hex="0043"/>
	<advance width="620"/>
	<outline>
		<contour>
			<point x="451" y="580" type="curve" smooth="yes"/>
			<point x="450" y="585"/>
			<point x="448" y="593"/>
			<point x="441" y="593" type="curve" smooth="yes"/>
			<point x="257" y="593"/>
			<point x="143" y="431"/>
			<point x="143" y="296" type="curve" smooth="yes"/>
			<point x="143" y="181"/>
			<point x="210" y="102"/>
			<point x="309" y="102" type="curve" smooth="yes"/>
			<point x="392.3264248705" y="102"/>
			<point x="445.6758064101" y="121.7242271098"/>
			<point x="496" y="171" type="curve" smooth="yes"/>
			<point x="519" y="194"/>
			<point x="558" y="193"/>
			<point x="581" y="170" type="curve" smooth="yes"/>
			<point x="604" y="147"/>
			<point x="603" y="108"/>
			<point x="580" y="85" type="curve" smooth="yes"/>
			<point x="509.9235402693" y="15.9540764418"/>
			<point x="432.2707581227" y="-18"/>
			<point x="309" y="-18" type="curve" smooth="yes"/>
			<point x="150" y="-18"/>
			<point x="23" y="97"/>
			<point x="23" y="296" type="curve" smooth="yes"/>
			<point x="23" y="500"/>
			<point x="209" y="713"/>
			<point x="441" y="713" type="curve" smooth="yes"/>
			<point x="516" y="713"/>
			<point x="559" y="678"/>
			<point x="569" y="596" type="curve" smooth="yes"/>
			<point x="573" y="564"/>
			<point x="550" y="533"/>
			<point x="518" y="529" type="curve" smooth="yes"/>
			<point x="486" y="524"/>
			<point x="455" y="548"/>
		</contour>
	</outline>
</glyph>
<glyph name="D" format="2">
	<unicode hex="0044"/>
	<advance width="650"/>
	<outline>
		<contour>
			<point x="197" y="-18" type="curve" smooth="yes"/>
			<point x="379" y="-18"/>
			<point x="611" y="210"/>
			<point x="611" y="452" type="curve" smooth="yes"/>
			<point x="611" y="623"/>
			<point x="506" y="709"/>
			<point x="345" y="709" type="curve" smooth="yes"/>
			<point x="234" y="709"/>
			<point x="134" y="691"/>
			<point x="40" y="653" type="curve" smooth="yes"/>
			<point x="18" y="644"/>
			<point x="8" y="623"/>
			<point x="8" y="601" type="curve" smooth="yes"/>
			<point x="8" y="568"/>
			<point x="35" y="541"/>
			<point x="68" y="541" type="curve" smooth="yes"/>
			<point x="128" y="541"/>
			<point x="171" y="589"/>
			<point x="345" y="589" type="curve" smooth="yes"/>
			<point x="446" y="589"/>
			<point x="491" y="542"/>
			<point x="491" y="460" type="curve" smooth="yes"/>
			<point x="491" y="236"/>
			<point x="278" y="96"/>
			<point x="158" y="95" type="curve"/>
			<point x="198" y="63" type="line"/>
			<point x="196" y="248"/>
			<point x="201" y="365"/>
			<point x="218" y="551" type="curve" smooth="yes"/>
			<point x="221" y="584"/>
			<point x="191" y="611"/>
			<point x="158" y="611" type="curve" smooth="yes"/>
			<point x="126" y="611"/>
			<point x="100" y="586"/>
			<point x="98" y="555" type="curve" smooth="yes"/>
			<point x="82" y="369"/>
			<point x="76" y="244"/>
			<point x="76" y="134" type="curve" smooth="yes"/>
			<point x="76" y="45"/>
			<point x="118" y="-18"/>
		</contour>
	</outline>
</glyph>
<glyph name="E" format="2">
	<unicode hex="0045"/>
	<advance width="683"/>
	<outline>
		<contour>
			<point x="523" y="592" type="curve" smooth="yes"/>
			<point x="555" y="593"/>
			<point x="581" y="620"/>
			<point x="581" y="652" type="curve" smooth="yes"/>
			<point x="581" y="685"/>
			<point x="554" y="712"/>
			<point x="521" y="712" type="curve" smooth="yes"/>
			<point x="407" y="712"/>
			<point x="242" y="695"/>
			<point x="113" y="670" type="curve" smooth="yes"/>
			<point x="81" y="664"/>
			<point x="63" y="640"/>
			<point x="63" y="612" type="curve" smooth="yes"/>
			<point x="63" y="582"/>
			<point x="87" y="554"/>
			<point x="120" y="554" type="curve" smooth="yes"/>
			<point x="208" y="554"/>
			<point x="314" y="584"/>
		</contour>
		<contour>
			<point x="339" y="-7" type="curve" smooth="yes"/>
			<point x="444" y="-7"/>
			<point x="519" y="12"/>
			<point x="577" y="25" type="curve" smooth="yes"/>
			<point x="604" y="31"/>
			<point x="624" y="55"/>
			<point x="624" y="84" type="curve" smooth="yes"/>
			<point x="624" y="117"/>
			<point x="597" y="144"/>
			<point x="564" y="144" type="curve" smooth="yes"/>
			<point x="544" y="144"/>
			<point x="453" y="113"/>
			<point x="339" y="113" type="curve" smooth="yes"/>
			<point x="256" y="113"/>
			<point x="185" y="187"/>
			<point x="185" y="276" type="curve" smooth="yes"/>
			<point x="185" y="394"/>
			<point x="217" y="486"/>
			<point x="246" y="564" type="curve" smooth="yes"/>
			<point x="249" y="572"/>
			<point x="250" y="579"/>
			<point x="250" y="585" type="curve" smooth="yes"/>
			<point x="250" y="610"/>
			<point x="231" y="624"/>
			<point x="206" y="624" type="curve" smooth="yes"/>
			<point x="158" y="624"/>
			<point x="126" y="595"/>
			<point x="113" y="547" type="curve" smooth="yes"/>
			<point x="90" y="464"/>
			<point x="63" y="372"/>
			<point x="63" y="291" type="curve" smooth="yes"/>
			<point x="63" y="120"/>
			<point x="180" y="-7"/>
		</contour>
		<contour>
			<point x="178" y="260" type="curve" smooth="yes"/>
			<point x="239" y="273"/>
			<point x="335" y="289"/>
			<point x="420" y="292" type="curve" smooth="yes"/>
			<point x="452" y="293"/>
			<point x="478" y="319"/>
			<point x="478" y="352" type="curve" smooth="yes"/>
			<point x="478" y="385"/>
			<point x="451" y="412"/>
			<point x="418" y="412" type="curve" smooth="yes"/>
			<point x="417" y="412"/>
			<point x="416" y="412"/>
			<point x="415" y="412" type="curve" smooth="yes"/>
			<point x="337" y="410"/>
			<point x="251" y="395"/>
			<point x="185" y="384" type="curve" smooth="yes"/>
			<point x="137" y="376"/>
			<point x="117" y="344"/>
			<point x="117" y="309" type="curve" smooth="yes"/>
			<point x="117" y="279"/>
			<point x="135" y="250"/>
		</contour>
	</outline>
</glyph>
<glyph name="G" format="2">
	<unicode hex="0047"/>
	<advance width="796"/>
	<outline>
		<contour>
			<point x="323" y="248" type="curve" smooth="yes"/>
			<point x="337" y="248"/>
			<point x="366" y="256"/>
			<point x="411" y="270" type="curve" smooth="yes"/>
			<point x="476" y="290"/>
			<point x="555" y="304"/>
			<point x="716" y="304" type="curve" smooth="yes"/>
			<point x="748" y="304"/>
			<point x="774" y="332"/>
			<point x="774" y="364" type="curve" smooth="yes"/>
			<point x="774" y="398"/>
			<point x="745" y="424"/>
			<point x="711" y="424" type="curve" smooth="yes"/>
			<point x="533" y="423"/>
			<point x="436" y="402"/>
			<point x="314" y="366" type="curve" smooth="yes"/>
			<point x="278" y="356"/>
			<point x="266" y="327"/>
			<point x="266" y="300" type="curve" smooth="yes"/>
			<point x="266" y="270"/>
			<point x="291" y="248"/>
		</contour>
		<contour>
			<point x="642" y="-54"/>
			<point x="663" y="-71"/>
			<point x="687" y="-71" type="curve" smooth="yes"/>
			<point x="719" y="-71"/>
			<point x="748" y="-44"/>
			<point x="748" y="-12" type="curve" smooth="yes"/>
			<point x="748" y="-4"/>
			<point x="747" y="5"/>
			<point x="744" y="12" type="curve" smooth="yes"/>
			<point x="708" y="100"/>
			<point x="668" y="219"/>
			<point x="656" y="297" type="curve" smooth="yes"/>
			<point x="651" y="329"/>
			<point x="633" y="348"/>
			<point x="587" y="348" type="curve" smooth="yes"/>
			<point x="552" y="348"/>
			<point x="531" y="338"/>
			<point x="514" y="306" type="curve" smooth="yes"/>
			<point x="452" y="184"/>
			<point x="351" y="118"/>
			<point x="265" y="118" type="curve" smooth="yes"/>
			<point x="196" y="118"/>
			<point x="151" y="165"/>
			<point x="151" y="236" type="curve" smooth="yes"/>
			<point x="151" y="355"/>
			<point x="264" y="515"/>
			<point x="430" y="571" type="curve"/>
			<point x="417" y="576" type="line"/>
			<point x="387" y="531"/>
			<point x="401" y="485"/>
			<point x="453" y="485" type="curve" smooth="yes"/>
			<point x="512" y="485"/>
			<point x="547" y="556"/>
			<point x="547" y="607" type="curve" smooth="yes"/>
			<point x="547" y="658"/>
			<point x="516" y="700"/>
			<point x="465" y="700" type="curve" smooth="yes"/>
			<point x="264" y="700"/>
			<point x="31" y="456"/>
			<point x="31" y="236" type="curve" smooth="yes"/>
			<point x="31" y="99"/>
			<point x="130" y="-2"/>
			<point x="265" y="-2" type="curve" smooth="yes"/>
			<point x="378" y="-2"/>
			<point x="505" y="79"/>
			<point x="585" y="192" type="curve"/>
			<point x="556" y="194" type="line"/>
			<point x="579" y="118"/>
			<point x="603" y="41"/>
			<point x="632" y="-32" type="curve" smooth="yes"/>
		</contour>
	</outline>
</glyph>
<glyph name="I" format="2">
	<unicode hex="0049"/>
	<advance width="640"/>
	<outline>
		<contour>
			<point x="102" y="693" type="curve" smooth="yes"/>
			<point x="259" y="712"/>
			<point x="438" y="702"/>
			<point x="535" y="713" type="curve" smooth="yes"/>
			<point x="567" y="716"/>
			<point x="598" y="692"/>
			<point x="602" y="660" type="curve" smooth="yes"/>
			<point x="605" y="628"/>
			<point x="581" y="597"/>
			<point x="549" y="593" type="curve" smooth="yes"/>
			<point x="452" y="582"/>
			<point x="273" y="592"/>
			<point x="116" y="573" type="curve" smooth="yes"/>
			<point x="84" y="570"/>
			<point x="53" y="594"/>
			<point x="49" y="626" type="curve" smooth="yes"/>
			<point x="46" y="658"/>
			<point x="70" y="689"/>
		</contour>
		<contour>
			<point x="107" y="102" type="curve" smooth="yes"/>
			<point x="255" y="114"/>
			<point x="379" y="120"/>
			<point x="566" y="120" type="curve" smooth="yes"/>
			<point x="598" y="120"/>
			<point x="626" y="92"/>
			<point x="626" y="60" type="curve" smooth="yes"/>
			<point x="626" y="28"/>
			<point x="598" y="0"/>
			<point x="566" y="0" type="curve" smooth="yes"/>
			<point x="383" y="0"/>
			<point x="261" y="-6"/>
			<point x="117" y="-18" type="curve" smooth="yes"/>
			<point x="85" y="-20"/>
			<point x="55" y="5"/>
			<point x="52" y="37" type="curve" smooth="yes"/>
			<point x="50" y="69"/>
			<point x="75" y="99"/>
		</contour>
		<contour>
			<point x="259" y="109" type="curve" smooth="yes"/>
			<point x="255" y="311"/>
			<point x="279" y="404"/>
			<point x="291" y="622" type="curve" smooth="yes"/>
			<point x="293" y="655"/>
			<point x="322" y="681"/>
			<point x="354" y="679" type="curve" smooth="yes"/>
			<point x="387" y="677"/>
			<point x="413" y="648"/>
			<point x="411" y="616" type="curve" smooth="yes"/>
			<point x="399" y="402"/>
			<point x="375" y="309"/>
			<point x="379" y="111" type="curve" smooth="yes"/>
			<point x="380" y="79"/>
			<point x="353" y="51"/>
			<point x="320" y="50" type="curve" smooth="yes"/>
			<point x="288" y="49"/>
			<point x="260" y="76"/>
		</contour>
	</outline>
</glyph>
<glyph name="L" format="2">
	<unicode hex="004C"/>
	<advance width="544"/>
	<outline>
		<contour>
			<point x="211" y="655" type="curve" smooth="yes"/>
			<point x="221" y="533"/>
			<point x="161" y="386"/>
			<point x="161" y="252" type="curve" smooth="yes"/>
			<point x="161" y="177"/>
			<point x="174" y="110"/>
			<point x="255" y="110" type="curve" smooth="yes"/>
			<point x="328" y="110"/>
			<point x="392" y="117"/>
			<point x="449" y="139" type="curve" smooth="yes"/>
			<point x="479" y="151"/>
			<point x="515" y="135"/>
			<point x="526" y="104" type="curve" smooth="yes"/>
			<point x="538" y="74"/>
			<point x="522" y="38"/>
			<point x="491" y="27" type="curve" smooth="yes"/>
			<point x="422" y="1"/>
			<point x="344" y="-10"/>
			<point x="255" y="-10" type="curve" smooth="yes"/>
			<point x="106" y="-10"/>
			<point x="41" y="81"/>
			<point x="41" y="252" type="curve" smooth="yes"/>
			<point x="41" y="382"/>
			<point x="101" y="527"/>
			<point x="91" y="645" type="curve" smooth="yes"/>
			<point x="89" y="677"/>
			<point x="114" y="707"/>
			<point x="146" y="710" type="curve" smooth="yes"/>
			<point x="178" y="712"/>
			<point x="208" y="687"/>
		</contour>
	</outline>
</glyph>
<glyph name="M" format="2">
	<unicode hex="004D"/>
	<advance width="916"/>
	<outline>
		<contour>
			<point x="162" y="616" type="curve" smooth="yes"/>
			<point x="170" y="583"/>
			<point x="174" y="547"/>
			<point x="176" y="509" type="curve" smooth="yes"/>
			<point x="182" y="411"/>
			<point x="106" y="415"/>
			<point x="137" y="508" type="curve" smooth="yes"/>
			<point x="178" y="632"/>
			<point x="233" y="709"/>
			<point x="282" y="709" type="curve" smooth="yes"/>
			<point x="360" y="709"/>
			<point x="408" y="600"/>
			<point x="441" y="348" type="curve" smooth="yes"/>
			<point x="451" y="284"/>
			<point x="461" y="218"/>
			<point x="479" y="162" type="curve" smooth="yes"/>
			<point x="499" y="94"/>
			<point x="422" y="108"/>
			<point x="440" y="160" type="curve" smooth="yes"/>
			<point x="477" y="266"/>
			<point x="503" y="359"/>
			<point x="524" y="434" type="curve" smooth="yes"/>
			<point x="588" y="658"/>
			<point x="642" y="710"/>
			<point x="694" y="710" type="curve" smooth="yes"/>
			<point x="758" y="710"/>
			<point x="795" y="675"/>
			<point x="817" y="465" type="curve" smooth="yes"/>
			<point x="830" y="337"/>
			<point x="845" y="168"/>
			<point x="895" y="72" type="curve" smooth="yes"/>
			<point x="910" y="43"/>
			<point x="898" y="6"/>
			<point x="870" y="-9" type="curve" smooth="yes"/>
			<point x="841" y="-24"/>
			<point x="804" y="-12"/>
			<point x="789" y="16" type="curve" smooth="yes"/>
			<point x="734" y="120"/>
			<point x="714" y="298"/>
			<point x="702" y="417" type="curve" smooth="yes"/>
			<point x="696" y="478"/>
			<point x="687" y="526"/>
			<point x="671" y="580" type="curve" smooth="yes"/>
			<point x="657" y="627"/>
			<point x="753" y="645"/>
			<point x="711" y="566" type="curve" smooth="yes"/>
			<point x="661" y="473"/>
			<point x="617" y="283"/>
			<point x="520" y="29" type="curve" smooth="yes"/>
			<point x="511" y="5"/>
			<point x="490" y="-9"/>
			<point x="466" y="-9" type="curve" smooth="yes"/>
			<point x="446" y="-9"/>
			<point x="423" y="2"/>
			<point x="407" y="26" type="curve" smooth="yes"/>
			<point x="365" y="89"/>
			<point x="340" y="211"/>
			<point x="323" y="332" type="curve" smooth="yes"/>
			<point x="309" y="432"/>
			<point x="293" y="509"/>
			<point x="262" y="584" type="curve" smooth="yes"/>
			<point x="239" y="640"/>
			<point x="321" y="607"/>
			<point x="289" y="559" type="curve" smooth="yes"/>
			<point x="227" y="464"/>
			<point x="190" y="243"/>
			<point x="190" y="48" type="curve" smooth="yes"/>
			<point x="190" y="9"/>
			<point x="160" y="-12"/>
			<point x="130" y="-12" type="curve" smooth="yes"/>
			<point x="102" y="-12"/>
			<point x="75" y="5"/>
			<point x="71" y="40" type="curve" smooth="yes"/>
			<point x="41" y="264"/>
			<point x="79" y="449"/>
			<point x="46" y="588" type="curve" smooth="yes"/>
			<point x="38" y="619"/>
			<point x="58" y="653"/>
			<point x="90" y="660" type="curve" smooth="yes"/>
			<point x="121" y="668"/>
			<point x="155" y="648"/>
		</contour>
	</outline>
</glyph>
<glyph name="Q" format="2">
	<unicode hex="0051"/>
	<advance width="710"/>
	<outline>
		<contour>
			<point x="411" y="311" type="curve" smooth="yes"/>
			<point x="457" y="246"/>
			<point x="521" y="60"/>
			<point x="620" y="-25" type="curve" smooth="yes"/>
			<point x="645" y="-46"/>
			<point x="648" y="-85"/>
			<point x="627" y="-110" type="curve" smooth="yes"/>
			<point x="606" y="-135"/>
			<point x="567" y="-138"/>
			<point x="542" y="-117" type="curve" smooth="yes"/>
			<point x="435" y="-26"/>
			<point x="363" y="172"/>
			<point x="313" y="241" type="curve" smooth="yes"/>
			<point x="294" y="267"/>
			<point x="301" y="306"/>
			<point x="327" y="325" type="curve" smooth="yes"/>
			<point x="353" y="344"/>
			<point x="392" y="337"/>
		</contour>
		<contour>
			<point x="288" y="545" type="curve" smooth="yes"/>
			<point x="202" y="492"/>
			<point x="160" y="398"/>
			<point x="160" y="313" type="curve" smooth="yes"/>
			<point x="160" y="208"/>
			<point x="213" y="111"/>
			<point x="360" y="111" type="curve" smooth="yes"/>
			<point x="479" y="111"/>
			<point x="552" y="201"/>
			<point x="552" y="295" type="curve" smooth="yes"/>
			<point x="552" y="437"/>
			<point x="494" y="584"/>
			<point x="404" y="584" type="curve" smooth="yes"/>
			<point x="351" y="584"/>
			<point x="301" y="534"/>
			<point x="268" y="472" type="curve" smooth="yes"/>
			<point x="253" y="443"/>
			<point x="216" y="432"/>
			<point x="187" y="447" type="curve" smooth="yes"/>
			<point x="158" y="462"/>
			<point x="147" y="499"/>
			<point x="162" y="528" type="curve" smooth="yes"/>
			<point x="219" y="638"/>
			<point x="327" y="709"/>
			<point x="419" y="709" type="curve" smooth="yes"/>
			<point x="558" y="709"/>
			<point x="674" y="537"/>
			<point x="674" y="307" type="curve" smooth="yes"/>
			<point x="674" y="141"/>
			<point x="557" y="-9"/>
			<point x="360" y="-9" type="curve" smooth="yes"/>
			<point x="125" y="-9"/>
			<point x="40" y="144"/>
			<point x="40" y="313" type="curve" smooth="yes"/>
			<point x="40" y="436"/>
			<point x="102" y="572"/>
			<point x="226" y="647" type="curve" smooth="yes"/>
			<point x="253" y="664"/>
			<point x="291" y="655"/>
			<point x="308" y="627" type="curve" smooth="yes"/>
			<point x="325" y="600"/>
			<point x="316" y="562"/>
		</contour>
	</outline>
</glyph>
<glyph name="S" format="2">
	<unicode hex="0053"/>
	<advance width="561"/>
	<outline>
		<contour>
			<point x="237" y="-17" type="curve" smooth="yes"/>
			<point x="385" y="-17"/>
			<point x="509" y="31"/>
			<point x="509" y="135" type="curve" smooth="yes"/>
			<point x="509" y="207"/>
			<point x="445" y="243"/>
			<point x="340" y="307" type="curve" smooth="yes"/>
			<point x="221" y="380"/>
			<point x="182" y="417"/>
			<point x="182" y="442" type="curve" smooth="yes"/>
			<point x="182" y="481"/>
			<point x="330" y="571"/>
			<point x="473" y="594" type="curve" smooth="yes"/>
			<point x="502" y="599"/>
			<point x="525" y="623"/>
			<point x="525" y="653" type="curve" smooth="yes"/>
			<point x="525" y="686"/>
			<point x="498" y="713"/>
			<point x="465" y="713" type="curve" smooth="yes"/>
			<point x="462" y="713"/>
			<point x="458" y="712"/>
			<point x="455" y="712" type="curve" smooth="yes"/>
			<point x="258" y="683"/>
			<point x="62" y="558"/>
			<point x="62" y="442" type="curve" smooth="yes"/>
			<point x="62" y="351"/>
			<point x="131" y="283"/>
			<point x="278" y="205" type="curve" smooth="yes"/>
			<point x="346" y="169"/>
			<point x="374" y="150"/>
			<point x="410" y="114" type="curve"/>
			<point x="413" y="149" type="line"/>
			<point x="374" y="123"/>
			<point x="316" y="102"/>
			<point x="237" y="103" type="curve" smooth="yes"/>
			<point x="161" y="104"/>
			<point x="146" y="121"/>
			<point x="109" y="121" type="curve" smooth="yes"/>
			<point x="81" y="121"/>
			<point x="54" y="94"/>
			<point x="54" y="61" type="curve" smooth="yes"/>
			<point x="54" y="36"/>
			<point x="70" y="14"/>
			<point x="92" y="5" type="curve" smooth="yes"/>
			<point x="125" y="-9"/>
			<point x="181" y="-17"/>
		</contour>
	</outline>
</glyph>
<glyph name="V" format="2">
	<unicode hex="0056"/>
	<advance width="674"/>
	<outline>
		<contour>
			<point x="101" y="699" type="curve" smooth="yes"/>
			<point x="236" y="597"/>
			<point x="237" y="270"/>
			<point x="368" y="83" type="curve"/>
			<point x="261" y="66" type="line"/>
			<point x="325" y="288"/>
			<point x="417" y="486"/>
			<point x="559" y="688" type="curve" smooth="yes"/>
			<point x="578" y="714"/>
			<point x="616" y="721"/>
			<point x="643" y="702" type="curve" smooth="yes"/>
			<point x="669" y="683"/>
			<point x="676" y="645"/>
			<point x="657" y="618" type="curve" smooth="yes"/>
			<point x="523" y="428"/>
			<point x="437" y="242"/>
			<point x="377" y="32" type="curve" smooth="yes"/>
			<point x="363" y="-16"/>
			<point x="299" y="-27"/>
			<point x="270" y="15" type="curve" smooth="yes"/>
			<point x="147" y="190"/>
			<point x="156" y="507"/>
			<point x="29" y="603" type="curve" smooth="yes"/>
			<point x="3" y="623"/>
			<point x="-2" y="661"/>
			<point x="17" y="687" type="curve" smooth="yes"/>
			<point x="37" y="713"/>
			<point x="75" y="718"/>
		</contour>
	</outline>
</glyph>
<glyph name="W" format="2">
	<unicode hex="0057"/>
	<advance width="990"/>
	<outline>
		<contour>
			<point x="159" y="656" type="curve" smooth="yes"/>
			<point x="169" y="516"/>
			<point x="213" y="337"/>
			<point x="265" y="186" type="curve" smooth="yes"/>
			<point x="293" y="102"/>
			<point x="203" y="111"/>
			<point x="223" y="186" type="curve" smooth="yes"/>
			<point x="270" y="358"/>
			<point x="336" y="487"/>
			<point x="389" y="569" type="curve" smooth="yes"/>
			<point x="423" y="622"/>
			<point x="456" y="652"/>
			<point x="504" y="652" type="curve" smooth="yes"/>
			<point x="576" y="652"/>
			<point x="592" y="606"/>
			<point x="613" y="498" type="curve" smooth="yes"/>
			<point x="633" y="397"/>
			<point x="676" y="264"/>
			<point x="747" y="139" type="curve" smooth="yes"/>
			<point x="770" y="98"/>
			<point x="692" y="89"/>
			<point x="704" y="139" type="curve" smooth="yes"/>
			<point x="746" y="309"/>
			<point x="767" y="531"/>
			<point x="810" y="671" type="curve" smooth="yes"/>
			<point x="819" y="699"/>
			<point x="842" y="712"/>
			<point x="868" y="712" type="curve" smooth="yes"/>
			<point x="912" y="712"/>
			<point x="938" y="676"/>
			<point x="922" y="627" type="curve" smooth="yes"/>
			<point x="872" y="474"/>
			<point x="853" y="209"/>
			<point x="799" y="31" type="curve" smooth="yes"/>
			<point x="791" y="3"/>
			<point x="767" y="-12"/>
			<point x="742" y="-12" type="curve" smooth="yes"/>
			<point x="725" y="-12"/>
			<point x="707" y="-6"/>
			<point x="696" y="9" type="curve" smooth="yes"/>
			<point x="571" y="178"/>
			<point x="503" y="411"/>
			<point x="482" y="531" type="curve" smooth="yes"/>
			<point x="477" y="562"/>
			<point x="520" y="551"/>
			<point x="504" y="526" type="curve" smooth="yes"/>
			<point x="420" y="391"/>
			<point x="349" y="235"/>
			<point x="315" y="55" type="curve" smooth="yes"/>
			<point x="306" y="7"/>
			<point x="281" y="-8"/>
			<point x="252" y="-8" type="curve" smooth="yes"/>
			<point x="231" y="-8"/>
			<point x="209" y="3"/>
			<point x="198" y="27" type="curve" smooth="yes"/>
			<point x="117" y="210"/>
			<point x="53" y="458"/>
			<point x="39" y="648" type="curve" smooth="yes"/>
			<point x="37" y="680"/>
			<point x="62" y="712"/>
			<point x="95" y="712" type="curve" smooth="yes"/>
			<point x="126" y="712"/>
			<point x="157" y="689"/>
		</contour>
	</outline>
</glyph>
<glyph name="X" format="2">
	<unicode hex="0058"/>
	<advance width="630"/>
	<outline>
		<contour>
			<point x="152" y="669" type="curve" smooth="yes"/>
			<point x="220" y="454"/>
			<point x="496" y="241"/>
			<point x="582" y="79" type="curve" smooth="yes"/>
			<point x="602" y="41"/>
			<point x="571" y="-9"/>
			<point x="529" y="-9" type="curve" smooth="yes"/>
			<point x="508" y="-9"/>
			<point x="486" y="3"/>
			<point x="476" y="23" type="curve" smooth="yes"/>
			<point x="388" y="191"/>
			<point x="108" y="412"/>
			<point x="38" y="633" type="curve" smooth="yes"/>
			<point x="26" y="670"/>
			<point x="58" y="711"/>
			<point x="95" y="711" type="curve" smooth="yes"/>
			<point x="120" y="711"/>
			<point x="144" y="694"/>
		</contour>
		<contour>
			<point x="560" y="605" type="curve" smooth="yes"/>
			<point x="424" y="481"/>
			<point x="234" y="248"/>
			<point x="112" y="22" type="curve" smooth="yes"/>
			<point x="101" y="3"/>
			<point x="80" y="-9"/>
			<point x="58" y="-9" type="curve" smooth="yes"/>
			<point x="17" y="-9"/>
			<point x="-14" y="42"/>
			<point x="6" y="80" type="curve" smooth="yes"/>
			<point x="136" y="318"/>
			<point x="336" y="563"/>
			<point x="480" y="693" type="curve" smooth="yes"/>
			<point x="491" y="703"/>
			<point x="506" y="708"/>
			<point x="520" y="708" type="curve" smooth="yes"/>
			<point x="586" y="708"/>
			<point x="597" y="637"/>
		</contour>
	</outline>
</glyph>
<glyph name="Y" format="2">
	<unicode hex="0059"/>
	<advance width="635"/>
	<outline>
		<contour>
			<point x="128" y="694" type="curve" smooth="yes"/>
			<point x="241" y="580"/>
			<point x="280" y="512"/>
			<point x="354" y="335" type="curve" smooth="yes"/>
			<point x="367" y="305"/>
			<point x="352" y="269"/>
			<point x="322" y="257" type="curve" smooth="yes"/>
			<point x="292" y="244"/>
			<point x="256" y="259"/>
			<point x="244" y="289" type="curve" smooth="yes"/>
			<point x="178" y="446"/>
			<point x="143" y="508"/>
			<point x="42" y="610" type="curve" smooth="yes"/>
			<point x="20" y="633"/>
			<point x="20" y="672"/>
			<point x="43" y="695" type="curve" smooth="yes"/>
			<point x="54" y="706"/>
			<point x="70" y="711"/>
			<point x="85" y="711" type="curve" smooth="yes"/>
			<point x="101" y="711"/>
			<point x="116" y="706"/>
		</contour>
		<contour>
			<point x="611" y="609" type="curve" smooth="yes"/>
			<point x="449" y="458"/>
			<point x="326" y="245"/>
			<point x="280" y="33" type="curve" smooth="yes"/>
			<point x="274" y="5"/>
			<point x="248" y="-14"/>
			<point x="220" y="-14" type="curve" smooth="yes"/>
			<point x="177" y="-14"/>
			<point x="153" y="18"/>
			<point x="162" y="59" type="curve" smooth="yes"/>
			<point x="213" y="293"/>
			<point x="349" y="530"/>
			<point x="529" y="697" type="curve" smooth="yes"/>
			<point x="540" y="708"/>
			<point x="555" y="713"/>
			<point x="570" y="713" type="curve" smooth="yes"/>
			<point x="586" y="713"/>
			<point x="603" y="707"/>
			<point x="614" y="694" type="curve" smooth="yes"/>
			<point x="636" y="670"/>
			<point x="635" y="631"/>
		</contour>
	</outline>
</glyph>
<glyph name="Z" format="2">
	<unicode hex="005A"/>
	<advance width="711"/>
	<outline>
		<contour>
			<point x="127" y="681" type="curve" smooth="yes"/>
			<point x="220" y="702"/>
			<point x="310" y="710"/>
			<point x="399" y="710" type="curve" smooth="yes"/>
			<point x="564" y="710"/>
			<point x="610" y="639"/>
			<point x="610" y="564" type="curve" smooth="yes"/>
			<point x="610" y="488"/>
			<point x="595" y="439"/>
			<point x="388" y="305" type="curve" smooth="yes"/>
			<point x="253" y="217"/>
			<point x="193" y="175"/>
			<point x="193" y="130" type="curve" smooth="yes"/>
			<point x="193" y="123"/>
			<point x="200" y="113"/>
			<point x="231" y="113" type="curve" smooth="yes"/>
			<point x="335" y="113"/>
			<point x="466" y="128"/>
			<point x="598" y="113" type="curve" smooth="yes"/>
			<point x="630" y="109"/>
			<point x="654" y="78"/>
			<point x="651" y="46" type="curve" smooth="yes"/>
			<point x="647" y="14"/>
			<point x="616" y="-10"/>
			<point x="584" y="-7" type="curve" smooth="yes"/>
			<point x="458" y="8"/>
			<point x="331" y="-7"/>
			<point x="231" y="-7" type="curve" smooth="yes"/>
			<point x="114" y="-7"/>
			<point x="73" y="48"/>
			<point x="73" y="120" type="curve" smooth="yes"/>
			<point x="73" y="195"/>
			<point x="115" y="271"/>
			<point x="322" y="405" type="curve" smooth="yes"/>
			<point x="449" y="487"/>
			<point x="490" y="512"/>
			<point x="490" y="564" type="curve" smooth="yes"/>
			<point x="490" y="584"/>
			<point x="472" y="590"/>
			<point x="399" y="590" type="curve" smooth="yes"/>
			<point x="318" y="590"/>
			<point x="238" y="582"/>
			<point x="153" y="563" type="curve" smooth="yes"/>
			<point x="122" y="556"/>
			<point x="89" y="577"/>
			<point x="81" y="609" type="curve" smooth="yes"/>
			<point x="74" y="640"/>
			<point x="95" y="673"/>
		</contour>
	</outline>
</glyph>
<glyph name="a" format="2">
	<unicode hex="0061"/>
	<advance width="644"/>
	<outline>
		<contour>
			<point x="369" y="401" type="curve" smooth="yes"/>
			<point x="375" y="423"/>
			<point x="395" y="440"/>
			<point x="423" y="440" type="curve" smooth="yes"/>
			<point x="460" y="440"/>
			<point x="495" y="411"/>
			<point x="505" y="370" type="curve" smooth="yes"/>
			<point x="530" y="262"/>
			<point x="554" y="196"/>
			<point x="625" y="109" type="curve" smooth="yes"/>
			<point x="634" y="99"/>
			<point x="639" y="86"/>
			<point x="639" y="71" type="curve" smooth="yes"/>
			<point x="639" y="38"/>
			<point x="612" y="11"/>
			<point x="579" y="11" type="curve" smooth="yes"/>
			<point x="560" y="11"/>
			<point x="543" y="20"/>
			<point x="532" y="33" type="curve" smooth="yes"/>
			<point x="477" y="101"/>
			<point x="442" y="162"/>
			<point x="412" y="243" type="curve"/>
			<point x="440" y="243" type="line"/>
			<point x="388" y="94"/>
			<point x="289" y="1"/>
			<point x="181" y="1" type="curve" smooth="yes"/>
			<point x="83" y="1"/>
			<point x="35" y="52"/>
			<point x="35" y="153" type="curve" smooth="yes"/>
			<point x="35" y="324"/>
			<point x="195" y="520"/>
			<point x="339" y="522" type="curve" smooth="yes"/>
			<point x="339" y="522"/>
			<point x="340" y="522"/>
			<point x="340" y="522" type="curve" smooth="yes"/>
			<point x="373" y="522"/>
			<point x="400" y="495"/>
			<point x="400" y="462" type="curve" smooth="yes"/>
			<point x="400" y="425"/>
			<point x="373" y="402"/>
			<point x="341" y="402" type="curve" smooth="yes"/>
			<point x="265" y="401"/>
			<point x="155" y="257"/>
			<point x="155" y="153" type="curve" smooth="yes"/>
			<point x="155" y="117"/>
			<point x="152" y="121"/>
			<point x="181" y="121" type="curve" smooth="yes"/>
			<point x="256" y="121"/>
			<point x="341" y="242"/>
		</contour>
	</outline>
</glyph>
<glyph name="b" format="2">
	<unicode hex="0062"/>
	<advance width="587"/>
	<outline>
		<contour>
			<point x="175" y="758" type="curve" smooth="yes"/>
			<point x="187" y="678"/>
			<point x="154" y="601"/>
			<point x="177" y="341" type="curve" smooth="yes"/>
			<point x="188" y="235"/>
			<point x="92" y="248"/>
			<point x="130" y="343" type="curve" smooth="yes"/>
			<point x="181" y="470"/>
			<point x="275" y="510"/>
			<point x="365" y="510" type="curve" smooth="yes"/>
			<point x="470" y="510"/>
			<point x="547" y="442"/>
			<point x="547" y="287" type="curve" smooth="yes"/>
			<point x="547" y="110"/>
			<point x="373" y="-10"/>
			<point x="192" y="-10" type="curve" smooth="yes"/>
			<point x="157" y="-10"/>
			<point x="123" y="-6"/>
			<point x="89" y="3" type="curve" smooth="yes"/>
			<point x="58" y="11"/>
			<point x="39" y="45"/>
			<point x="47" y="77" type="curve" smooth="yes"/>
			<point x="55" y="108"/>
			<point x="89" y="127"/>
			<point x="121" y="119" type="curve" smooth="yes"/>
			<point x="243" y="86"/>
			<point x="427" y="140"/>
			<point x="427" y="287" type="curve" smooth="yes"/>
			<point x="427" y="340"/>
			<point x="414" y="390"/>
			<point x="365" y="390" type="curve" smooth="yes"/>
			<point x="281" y="390"/>
			<point x="212" y="312"/>
			<point x="198" y="161" type="curve" smooth="yes"/>
			<point x="191" y="91"/>
			<point x="89" y="88"/>
			<point x="79" y="158" type="curve" smooth="yes"/>
			<point x="22" y="555"/>
			<point x="71" y="645"/>
			<point x="57" y="740" type="curve" smooth="yes"/>
			<point x="52" y="772"/>
			<point x="75" y="804"/>
			<point x="107" y="808" type="curve" smooth="yes"/>
			<point x="139" y="813"/>
			<point x="171" y="790"/>
		</contour>
	</outline>
</glyph>
<glyph name="c" format="2">
	<unicode hex="0063"/>
	<advance width="510"/>
	<outline>
		<contour>
			<point x="274" y="14" type="curve" smooth="yes"/>
			<point x="336.059" y="14"/>
			<point x="409.665" y="37.135"/>
			<point x="448.873" y="69.461" type="curve" smooth="yes"/>
			<point x="462.376" y="80.463"/>
			<point x="471" y="97.225"/>
			<point x="471" y="116" type="curve" smooth="yes"/>
			<point x="471" y="149.137"/>
			<point x="444.137" y="176"/>
			<point x="411" y="176" type="curve" smooth="yes"/>
			<point x="396.297" y="176"/>
			<point x="382.83" y="170.712"/>
			<point x="372.396" y="161.933" type="curve" smooth="yes"/>
			<point x="354.618" y="147.296"/>
			<point x="309.182" y="134"/>
			<point x="274" y="134" type="curve" smooth="yes"/>
			<point x="209.357" y="134"/>
			<point x="168" y="167.025"/>
			<point x="168" y="212" type="curve" smooth="yes"/>
			<point x="168" y="265.317"/>
			<point x="211.818" y="314.978"/>
			<point x="259.758" y="321.319" type="curve"/>
			<point x="270.689" y="306.564"/>
			<point x="288.228" y="297"/>
			<point x="308" y="297" type="curve" smooth="yes"/>
			<point x="341.137" y="297"/>
			<point x="368" y="323.863"/>
			<point x="368" y="357" type="curve" smooth="yes"/>
			<point x="368" y="363.423"/>
			<point x="366.99" y="369.611"/>
			<point x="365.122" y="375.413" type="curve" smooth="yes"/>
			<point x="351.788" y="419.242"/>
			<point x="316.715" y="442"/>
			<point x="270" y="442" type="curve" smooth="yes"/>
			<point x="151.452" y="442"/>
			<point x="48" y="334.515"/>
			<point x="48" y="212" type="curve" smooth="yes"/>
			<point x="48" y="97.768"/>
			<point x="144.811" y="14"/>
		</contour>
	</outline>
</glyph>
<glyph name="d" format="2">
	<unicode hex="0064"/>
	<advance width="651"/>
	<outline>
		<contour>
			<point x="326" y="389" type="curve" smooth="yes"/>
			<point x="359" y="386"/>
			<point x="389" y="410"/>
			<point x="393" y="442" type="curve" smooth="yes"/>
			<point x="396" y="475"/>
			<point x="372" y="505"/>
			<point x="340" y="509" type="curve" smooth="yes"/>
			<point x="144" y="530"/>
			<point x="40" y="427"/>
			<point x="40" y="279" type="curve" smooth="yes"/>
			<point x="40" y="109"/>
			<point x="156" y="-11"/>
			<point x="263" y="-11" type="curve" smooth="yes"/>
			<point x="329" y="-11"/>
			<point x="428" y="32"/>
			<point x="465" y="159" type="curve" smooth="yes"/>
			<point x="484" y="224"/>
			<point x="414" y="226"/>
			<point x="431" y="165" type="curve" smooth="yes"/>
			<point x="456" y="74"/>
			<point x="492" y="28"/>
			<point x="537" y="-1" type="curve" smooth="yes"/>
			<point x="564" y="-18"/>
			<point x="602" y="-10"/>
			<point x="620" y="18" type="curve" smooth="yes"/>
			<point x="637" y="45"/>
			<point x="629" y="83"/>
			<point x="601" y="101" type="curve" smooth="yes"/>
			<point x="552" y="132"/>
			<point x="540" y="202"/>
			<point x="541" y="281" type="curve" smooth="yes"/>
			<point x="542" y="419"/>
			<point x="562" y="534"/>
			<point x="562" y="751" type="curve" smooth="yes"/>
			<point x="562" y="785"/>
			<point x="537" y="811"/>
			<point x="502" y="811" type="curve" smooth="yes"/>
			<point x="470" y="811"/>
			<point x="442" y="783"/>
			<point x="442" y="743" type="curve" smooth="yes"/>
			<point x="442" y="365"/>
			<point x="387" y="109"/>
			<point x="263" y="109" type="curve" smooth="yes"/>
			<point x="208" y="109"/>
			<point x="160" y="189"/>
			<point x="160" y="279" type="curve" smooth="yes"/>
			<point x="160" y="363"/>
			<point x="232" y="400"/>
		</contour>
	</outline>
</glyph>
<glyph name="f" format="2">
	<unicode hex="0066"/>
	<advance width="434"/>
	<outline>
		<contour>
			<point x="359" y="692" type="curve" smooth="yes"/>
			<point x="213" y="668"/>
			<point x="182" y="597"/>
			<point x="182" y="474" type="curve" smooth="yes"/>
			<point x="182" y="282"/>
			<point x="249" y="179"/>
			<point x="220" y="-155" type="curve" smooth="yes"/>
			<point x="217" y="-188"/>
			<point x="187" y="-213"/>
			<point x="155" y="-210" type="curve" smooth="yes"/>
			<point x="122" y="-207"/>
			<point x="97" y="-177"/>
			<point x="100" y="-145" type="curve" smooth="yes"/>
			<point x="129" y="183"/>
			<point x="62" y="286"/>
			<point x="62" y="474" type="curve" smooth="yes"/>
			<point x="62" y="667"/>
			<point x="115" y="774"/>
			<point x="339" y="810" type="curve" smooth="yes"/>
			<point x="371" y="815"/>
			<point x="403" y="793"/>
			<point x="408" y="761" type="curve" smooth="yes"/>
			<point x="413" y="729"/>
			<point x="391" y="697"/>
		</contour>
		<contour>
			<point x="340" y="388" type="curve" smooth="yes"/>
			<point x="272" y="384"/>
			<point x="216" y="377"/>
			<point x="156" y="362" type="curve" smooth="yes"/>
			<point x="124" y="354"/>
			<point x="91" y="374"/>
			<point x="83" y="405" type="curve" smooth="yes"/>
			<point x="75" y="437"/>
			<point x="95" y="470"/>
			<point x="126" y="478" type="curve" smooth="yes"/>
			<point x="194" y="495"/>
			<point x="258" y="504"/>
			<point x="334" y="508" type="curve" smooth="yes"/>
			<point x="366" y="510"/>
			<point x="395" y="484"/>
			<point x="397" y="451" type="curve" smooth="yes"/>
			<point x="399" y="419"/>
			<point x="373" y="390"/>
		</contour>
	</outline>
</glyph>
<glyph name="g" format="2">
	<unicode hex="0067"/>
	<advance width="601"/>
	<outline>
		<contour>
			<point x="448" y="454" type="curve" smooth="yes"/>
			<point x="487" y="457"/>
			<point x="507" y="434"/>
			<point x="510" y="399" type="curve" smooth="yes"/>
			<point x="522" y="246"/>
			<point x="560" y="172"/>
			<point x="560" y="-10" type="curve" smooth="yes"/>
			<point x="560" y="-135"/>
			<point x="491" y="-211"/>
			<point x="370" y="-211" type="curve" smooth="yes"/>
			<point x="171" y="-211"/>
			<point x="90" y="-112"/>
			<point x="90" y="-44" type="curve" smooth="yes"/>
			<point x="90" y="8"/>
			<point x="127" y="29"/>
			<point x="155" y="29" type="curve" smooth="yes"/>
			<point x="188" y="29"/>
			<point x="200" y="13"/>
			<point x="200" y="-20" type="curve" smooth="yes"/>
			<point x="200" y="-56"/>
			<point x="278" y="-91"/>
			<point x="360" y="-91" type="curve" smooth="yes"/>
			<point x="419" y="-91"/>
			<point x="440" y="-63"/>
			<point x="440" y="-12" type="curve" smooth="yes"/>
			<point x="440" y="97"/>
			<point x="419" y="150"/>
			<point x="411" y="224" type="curve"/>
			<point x="454" y="234" type="line"/>
			<point x="429" y="124"/>
			<point x="340" y="91"/>
			<point x="267" y="91" type="curve" smooth="yes"/>
			<point x="128" y="91"/>
			<point x="40" y="161"/>
			<point x="40" y="273" type="curve" smooth="yes"/>
			<point x="40" y="399"/>
			<point x="155" y="512"/>
			<point x="283" y="512" type="curve" smooth="yes"/>
			<point x="358" y="512"/>
			<point x="408" y="456"/>
			<point x="408" y="386" type="curve" smooth="yes"/>
			<point x="408" y="367"/>
			<point x="391" y="344"/>
			<point x="361" y="344" type="curve" smooth="yes"/>
			<point x="329" y="344"/>
			<point x="323" y="392"/>
			<point x="283" y="392" type="curve" smooth="yes"/>
			<point x="221" y="392"/>
			<point x="160" y="332"/>
			<point x="160" y="273" type="curve" smooth="yes"/>
			<point x="160" y="233"/>
			<point x="192" y="211"/>
			<point x="267" y="211" type="curve" smooth="yes"/>
			<point x="348" y="211"/>
			<point x="402" y="257"/>
			<point x="402" y="388" type="curve" smooth="yes"/>
			<point x="401" y="433"/>
			<point x="413" y="453"/>
		</contour>
	</outline>
</glyph>
<glyph name="h" format="2">
	<unicode hex="0068"/>
	<advance width="716"/>
	<outline>
		<contour>
			<point x="621" y="-51" type="curve" smooth="yes"/>
			<point x="654" y="-51"/>
			<point x="681" y="-24"/>
			<point x="681" y="9" type="curve" smooth="yes"/>
			<point x="681" y="23"/>
			<point x="676" y="36"/>
			<point x="668" y="47" type="curve" smooth="yes"/>
			<point x="643" y="78"/>
			<point x="630" y="132"/>
			<point x="616" y="268" type="curve" smooth="yes"/>
			<point x="600" y="433"/>
			<point x="576" y="532"/>
			<point x="472" y="532" type="curve" smooth="yes"/>
			<point x="378" y="532"/>
			<point x="280" y="443"/>
			<point x="186" y="283" type="curve"/>
			<point x="194" y="395"/>
			<point x="224" y="535"/>
			<point x="224" y="639" type="curve" smooth="yes"/>
			<point x="224" y="684"/>
			<point x="221" y="727"/>
			<point x="216" y="771" type="curve" smooth="yes"/>
			<point x="212" y="801"/>
			<point x="187" y="824"/>
			<point x="156" y="824" type="curve" smooth="yes"/>
			<point x="123" y="824"/>
			<point x="96" y="797"/>
			<point x="96" y="764" type="curve" smooth="yes"/>
			<point x="96" y="746"/>
			<point x="104" y="695"/>
			<point x="104" y="639" type="curve" smooth="yes"/>
			<point x="104" y="507"/>
			<point x="62" y="345"/>
			<point x="62" y="144" type="curve" smooth="yes"/>
			<point x="62" y="120"/>
			<point x="63" y="96"/>
			<point x="63" y="71" type="curve" smooth="yes"/>
			<point x="64" y="34"/>
			<point x="83" y="13"/>
			<point x="119" y="7" type="curve" smooth="yes"/>
			<point x="127" y="6" type="line" smooth="yes"/>
			<point x="163" y="-1"/>
			<point x="187" y="13"/>
			<point x="202" y="48" type="curve" smooth="yes"/>
			<point x="299" y="269"/>
			<point x="410" y="412"/>
			<point x="472" y="412" type="curve" smooth="yes"/>
			<point x="472" y="412"/>
			<point x="488" y="345"/>
			<point x="497" y="256" type="curve" smooth="yes"/>
			<point x="506" y="162"/>
			<point x="518" y="42"/>
			<point x="574" y="-28" type="curve" smooth="yes"/>
			<point x="585" y="-42"/>
			<point x="602" y="-51"/>
		</contour>
	</outline>
</glyph>
<glyph name="i" format="2">
	<unicode hex="0069"/>
	<advance width="294"/>
	<outline>
		<contour>
			<point x="142" y="-7" type="curve" smooth="yes"/>
			<point x="182" y="-7"/>
			<point x="202" y="16"/>
			<point x="202" y="53" type="curve" smooth="yes"/>
			<point x="202" y="123.0877659574"/>
			<point x="208.9601152548" y="347.752047422"/>
			<point x="208" y="414" type="curve" smooth="yes"/>
			<point x="207" y="485"/>
			<point x="181" y="511"/>
			<point x="137" y="511" type="curve" smooth="yes"/>
			<point x="104" y="511"/>
			<point x="77" y="484"/>
			<point x="77" y="445" type="curve" smooth="yes"/>
			<point x="77" y="315.9024390244"/>
			<point x="82" y="255.2073170732"/>
			<point x="82" y="50" type="curve" smooth="yes"/>
			<point x="82" y="20"/>
			<point x="109" y="-7"/>
		</contour>
		<contour>
			<point x="150" y="622" type="curve" smooth="yes"/>
			<point x="184" y="622"/>
			<point x="208" y="648"/>
			<point x="208" y="682" type="curve" smooth="yes"/>
			<point x="208" y="700"/>
			<point x="201" y="742"/>
			<point x="193" y="766" type="curve" smooth="yes"/>
			<point x="183" y="795"/>
			<point x="165" y="815"/>
			<point x="128" y="815" type="curve" smooth="yes"/>
			<point x="91" y="815"/>
			<point x="65" y="785"/>
			<point x="78" y="743" type="curve" smooth="yes"/>
			<point x="85" y="719"/>
			<point x="86" y="707"/>
			<point x="88" y="682" type="curve" smooth="yes"/>
			<point x="90" y="646"/>
			<point x="113" y="622"/>
		</contour>
	</outline>
</glyph>
<glyph name="j" format="2">
	<unicode hex="006A"/>
	<advance width="280"/>
	<outline>
		<contour>
			<point x="142" y="469" type="curve" smooth="yes"/>
			<point x="195" y="304"/>
			<point x="215" y="180"/>
			<point x="215" y="49" type="curve" smooth="yes"/>
			<point x="215" y="-128"/>
			<point x="133" y="-212"/>
			<point x="19" y="-212" type="curve" smooth="yes"/>
			<point x="-35" y="-212"/>
			<point x="-46" y="-209"/>
			<point x="-86" y="-190" type="curve" smooth="yes"/>
			<point x="-115" y="-176"/>
			<point x="-129" y="-139"/>
			<point x="-115" y="-110" type="curve" smooth="yes"/>
			<point x="-101" y="-81"/>
			<point x="-65" y="-67"/>
			<point x="-35" y="-81" type="curve" smooth="yes"/>
			<point x="-17" y="-89"/>
			<point x="-5" y="-92"/>
			<point x="19" y="-92" type="curve" smooth="yes"/>
			<point x="81" y="-92"/>
			<point x="95" y="-20"/>
			<point x="95" y="49" type="curve" smooth="yes"/>
			<point x="95" y="168"/>
			<point x="77" y="282"/>
			<point x="28" y="431" type="curve" smooth="yes"/>
			<point x="18" y="462"/>
			<point x="36" y="497"/>
			<point x="66" y="507" type="curve" smooth="yes"/>
			<point x="97" y="517"/>
			<point x="132" y="499"/>
		</contour>
		<contour>
			<point x="92" y="612" type="curve" smooth="yes"/>
			<point x="126" y="612"/>
			<point x="150" y="638"/>
			<point x="150" y="672" type="curve" smooth="yes"/>
			<point x="150" y="690"/>
			<point x="143" y="732"/>
			<point x="135" y="756" type="curve" smooth="yes"/>
			<point x="125" y="785"/>
			<point x="107" y="805"/>
			<point x="70" y="805" type="curve" smooth="yes"/>
			<point x="33" y="805"/>
			<point x="7" y="775"/>
			<point x="20" y="733" type="curve" smooth="yes"/>
			<point x="27" y="709"/>
			<point x="28" y="697"/>
			<point x="30" y="672" type="curve" smooth="yes"/>
			<point x="32" y="636"/>
			<point x="55" y="612"/>
		</contour>
	</outline>
</glyph>
<glyph name="k" format="2">
	<unicode hex="006B"/>
	<advance width="552"/>
	<outline>
		<contour>
			<point x="176" y="764" type="curve" smooth="yes"/>
			<point x="171" y="796"/>
			<point x="140" y="819"/>
			<point x="108" y="814" type="curve" smooth="yes"/>
			<point x="76" y="809"/>
			<point x="53" y="778"/>
			<point x="58" y="746" type="curve" smooth="yes"/>
			<point x="92" y="517"/>
			<point x="34" y="231"/>
			<point x="47" y="46" type="curve" smooth="yes"/>
			<point x="49" y="13"/>
			<point x="79" y="-12"/>
			<point x="111" y="-10" type="curve" smooth="yes"/>
			<point x="144" y="-8"/>
			<point x="169" y="22"/>
			<point x="167" y="54" type="curve" smooth="yes"/>
			<point x="154" y="241"/>
			<point x="212" y="531"/>
		</contour>
		<contour>
			<point x="482" y="-7" type="curve" smooth="yes"/>
			<point x="515" y="-7"/>
			<point x="542" y="20"/>
			<point x="542" y="53" type="curve" smooth="yes"/>
			<point x="542" y="81"/>
			<point x="522" y="105"/>
			<point x="496" y="111" type="curve" smooth="yes"/>
			<point x="386" y="141"/>
			<point x="269" y="209"/>
			<point x="269" y="229" type="curve" smooth="yes"/>
			<point x="269" y="269"/>
			<point x="407" y="366"/>
			<point x="488" y="392" type="curve" smooth="yes"/>
			<point x="516" y="401"/>
			<point x="537" y="422"/>
			<point x="537" y="451" type="curve" smooth="yes"/>
			<point x="537" y="490"/>
			<point x="513" y="511"/>
			<point x="477" y="511" type="curve" smooth="yes"/>
			<point x="379" y="511"/>
			<point x="149" y="333"/>
			<point x="149" y="229" type="curve" smooth="yes"/>
			<point x="149" y="118"/>
			<point x="385" y="-7"/>
		</contour>
	</outline>
</glyph>
<glyph name="l" format="2">
	<unicode hex="006C"/>
	<advance width="340"/>
	<outline>
		<contour>
			<point x="189" y="743" type="curve" smooth="yes"/>
			<point x="176" y="627"/>
			<point x="164" y="537"/>
			<point x="164" y="417" type="curve" smooth="yes"/>
			<point x="164" y="142"/>
			<point x="192" y="109"/>
			<point x="214" y="109" type="curve" smooth="yes"/>
			<point x="224" y="109"/>
			<point x="232.890473775" y="115.0010972289"/>
			<point x="243" y="122" type="curve" smooth="yes"/>
			<point x="269" y="141"/>
			<point x="308" y="134"/>
			<point x="326" y="107" type="curve" smooth="yes"/>
			<point x="345" y="81"/>
			<point x="338" y="42"/>
			<point x="311" y="24" type="curve" smooth="yes"/>
			<point x="278" y="1"/>
			<point x="240" y="-11"/>
			<point x="198" y="-11" type="curve" smooth="yes"/>
			<point x="130" y="-11"/>
			<point x="44" y="32"/>
			<point x="44" y="417" type="curve" smooth="yes"/>
			<point x="44" y="541"/>
			<point x="56" y="635"/>
			<point x="69" y="757" type="curve" smooth="yes"/>
			<point x="73" y="789"/>
			<point x="103" y="813"/>
			<point x="136" y="810" type="curve" smooth="yes"/>
			<point x="168" y="806"/>
			<point x="192" y="776"/>
		</contour>
	</outline>
</glyph>
<glyph name="m" format="2">
	<unicode hex="006D"/>
	<advance width="864"/>
	<outline>
		<contour>
			<point x="169" y="372" type="curve" smooth="yes"/>
			<point x="169" y="303"/>
			<point x="104" y="316"/>
			<point x="134" y="377" type="curve" smooth="yes"/>
			<point x="175" y="460"/>
			<point x="224" y="510"/>
			<point x="268" y="510" type="curve" smooth="yes"/>
			<point x="358" y="510"/>
			<point x="394" y="433"/>
			<point x="426" y="258" type="curve" smooth="yes"/>
			<point x="430" y="234"/>
			<point x="435" y="209"/>
			<point x="441" y="185" type="curve" smooth="yes"/>
			<point x="459" y="98"/>
			<point x="380" y="104"/>
			<point x="405" y="186" type="curve" smooth="yes"/>
			<point x="451" y="335"/>
			<point x="529" y="510"/>
			<point x="634" y="510" type="curve" smooth="yes"/>
			<point x="734" y="510"/>
			<point x="772" y="429"/>
			<point x="790" y="262" type="curve" smooth="yes"/>
			<point x="796" y="199"/>
			<point x="801" y="132"/>
			<point x="831" y="81" type="curve" smooth="yes"/>
			<point x="858" y="36"/>
			<point x="832" y="-9"/>
			<point x="780" y="-9" type="curve" smooth="yes"/>
			<point x="759" y="-9"/>
			<point x="738" y="2"/>
			<point x="727" y="21" type="curve" smooth="yes"/>
			<point x="690" y="86"/>
			<point x="678" y="171"/>
			<point x="670" y="250" type="curve" smooth="yes"/>
			<point x="666" y="289"/>
			<point x="670" y="368"/>
			<point x="620" y="408" type="curve" smooth="yes"/>
			<point x="583" y="438"/>
			<point x="694" y="436"/>
			<point x="658" y="408" type="curve" smooth="yes"/>
			<point x="570" y="340"/>
			<point x="527" y="203"/>
			<point x="487" y="37" type="curve" smooth="yes"/>
			<point x="480" y="7"/>
			<point x="454" y="-9"/>
			<point x="429" y="-9" type="curve" smooth="yes"/>
			<point x="411" y="-9"/>
			<point x="393" y="-2"/>
			<point x="381" y="15" type="curve" smooth="yes"/>
			<point x="345" y="64"/>
			<point x="323" y="150"/>
			<point x="308" y="236" type="curve" smooth="yes"/>
			<point x="293" y="325"/>
			<point x="276" y="368"/>
			<point x="249" y="404" type="curve" smooth="yes"/>
			<point x="228" y="433"/>
			<point x="322" y="424"/>
			<point x="291" y="399" type="curve" smooth="yes"/>
			<point x="216" y="340"/>
			<point x="182" y="157"/>
			<point x="175" y="47" type="curve" smooth="yes"/>
			<point x="172" y="11"/>
			<point x="143" y="-9"/>
			<point x="114" y="-9" type="curve" smooth="yes"/>
			<point x="90" y="-9"/>
			<point x="65" y="5"/>
			<point x="57" y="35" type="curve" smooth="yes"/>
			<point x="47" y="73"/>
			<point x="43" y="117"/>
			<point x="43" y="166" type="curve"/>
			<point x="43" y="227"/>
			<point x="49" y="294"/>
			<point x="49" y="354" type="curve" smooth="yes"/>
			<point x="49" y="377"/>
			<point x="49" y="398"/>
			<point x="46" y="418" type="curve" smooth="yes"/>
			<point x="41" y="452"/>
			<point x="59" y="485"/>
			<point x="97" y="485" type="curve" smooth="yes"/>
			<point x="149" y="485"/>
			<point x="169" y="431"/>
		</contour>
	</outline>
</glyph>
<glyph name="n" format="2">
	<unicode hex="006E"/>
	<advance width="634"/>
	<outline>
		<contour>
			<point x="575" y="-5" type="curve" smooth="yes"/>
			<point x="603" y="-5"/>
			<point x="624" y="14"/>
			<point x="624" y="51" type="curve" smooth="yes"/>
			<point x="624" y="73"/>
			<point x="616" y="90"/>
			<point x="603" y="101" type="curve" smooth="yes"/>
			<point x="545" y="150"/>
			<point x="523" y="220"/>
			<point x="523" y="366" type="curve" smooth="yes"/>
			<point x="523" y="464"/>
			<point x="480" y="518"/>
			<point x="394" y="518" type="curve" smooth="yes"/>
			<point x="313" y="518"/>
			<point x="213" y="427"/>
			<point x="150" y="260" type="curve"/>
			<point x="169" y="252" type="line"/>
			<point x="173" y="347"/>
			<point x="183" y="405"/>
			<point x="179" y="448" type="curve" smooth="yes"/>
			<point x="176" y="486"/>
			<point x="144" y="500"/>
			<point x="117" y="500" type="curve" smooth="yes"/>
			<point x="80" y="500"/>
			<point x="62" y="476"/>
			<point x="59" y="443" type="curve" smooth="yes"/>
			<point x="51" y="355"/>
			<point x="45" y="278"/>
			<point x="45" y="151" type="curve" smooth="yes"/>
			<point x="45" y="58"/>
			<point x="73" y="-7"/>
			<point x="123" y="-9" type="curve" smooth="yes"/>
			<point x="158" y="-9"/>
			<point x="184" y="14"/>
			<point x="200" y="74" type="curve" smooth="yes"/>
			<point x="247" y="246"/>
			<point x="356" y="398"/>
			<point x="394" y="398" type="curve" smooth="yes"/>
			<point x="402" y="398"/>
			<point x="403" y="398"/>
			<point x="403" y="366" type="curve" smooth="yes"/>
			<point x="403" y="187"/>
			<point x="437" y="84"/>
			<point x="507" y="25" type="curve" smooth="yes"/>
			<point x="535" y="1"/>
			<point x="549" y="-5"/>
		</contour>
	</outline>
</glyph>
<glyph name="o" format="2">
	<unicode hex="006F"/>
	<advance width="600"/>
	<outline>
		<contour>
			<point x="315" y="-12" type="curve" smooth="yes"/>
			<point x="457" y="-12"/>
			<point x="565" y="108"/>
			<point x="565" y="266" type="curve" smooth="yes"/>
			<point x="565" y="405"/>
			<point x="465" y="504"/>
			<point x="326" y="504" type="curve" smooth="yes"/>
			<point x="212" y="504"/>
			<point x="134" y="409"/>
			<point x="134" y="352" type="curve" smooth="yes"/>
			<point x="134" y="304"/>
			<point x="160" y="270"/>
			<point x="191" y="270" type="curve" smooth="yes"/>
			<point x="234" y="270"/>
			<point x="229" y="334"/>
			<point x="266" y="367" type="curve" smooth="yes"/>
			<point x="281" y="378"/>
			<point x="300" y="384"/>
			<point x="326" y="384" type="curve" smooth="yes"/>
			<point x="399" y="384"/>
			<point x="445" y="339"/>
			<point x="445" y="266" type="curve" smooth="yes"/>
			<point x="445" y="174"/>
			<point x="391" y="108"/>
			<point x="315" y="108" type="curve" smooth="yes"/>
			<point x="217" y="108"/>
			<point x="155" y="171"/>
			<point x="155" y="266" type="curve" smooth="yes"/>
			<point x="155" y="322"/>
			<point x="177" y="363"/>
			<point x="218" y="385" type="curve" smooth="yes"/>
			<point x="261" y="408"/>
			<point x="276" y="430"/>
			<point x="276" y="467" type="curve" smooth="yes"/>
			<point x="276" y="499"/>
			<point x="252" y="511"/>
			<point x="225" y="511" type="curve" smooth="yes"/>
			<point x="122" y="509"/>
			<point x="35" y="386"/>
			<point x="35" y="266" type="curve" smooth="yes"/>
			<point x="35" y="104"/>
			<point x="152" y="-12"/>
		</contour>
	</outline>
</glyph>
<glyph name="p" format="2">
	<unicode hex="0070"/>
	<advance width="600"/>
	<outline>
		<contour>
			<point x="181" y="-269" type="curve" smooth="yes"/>
			<point x="213.156" y="-269"/>
			<point x="239.404" y="-243.703"/>
			<point x="240.93" y="-211.925" type="curve" smooth="yes"/>
			<point x="241.956" y="-193.026"/>
			<point x="242.437" y="-174.626"/>
			<point x="242.437" y="-156.361" type="curve" smooth="yes"/>
			<point x="242.437" y="-20.48"/>
			<point x="215.043" y="94.197"/>
			<point x="191.238" y="193.846" type="curve" smooth="yes"/>
			<point x="176.197" y="256.81"/>
			<point x="162.815" y="312.833"/>
			<point x="156.728" y="368.748" type="curve" smooth="yes"/>
			<point x="153.835" y="399.189"/>
			<point x="128.198" y="423"/>
			<point x="97" y="423" type="curve" smooth="yes"/>
			<point x="63.863" y="423"/>
			<point x="37" y="396.137"/>
			<point x="37" y="363" type="curve" smooth="yes"/>
			<point x="37" y="360.507"/>
			<point x="37.152" y="358.05"/>
			<point x="37.447" y="355.638" type="curve" smooth="yes"/>
			<point x="44.364" y="292.215"/>
			<point x="59.494" y="228.876"/>
			<point x="74.522" y="165.965" type="curve" smooth="yes"/>
			<point x="98.327" y="66.316"/>
			<point x="122.437" y="-34.614"/>
			<point x="122.437" y="-156.361" type="curve" smooth="yes"/>
			<point x="122.437" y="-172.978"/>
			<point x="121.974" y="-189.418"/>
			<point x="121.108" y="-205.377" type="curve" smooth="yes"/>
			<point x="121.036" y="-206.576"/>
			<point x="121" y="-207.784"/>
			<point x="121" y="-209" type="curve" smooth="yes"/>
			<point x="121" y="-242.137"/>
			<point x="147.863" y="-269"/>
		</contour>
		<contour>
			<point x="221.081" y="68.852" type="curve" smooth="yes"/>
			<point x="386.329" y="68.852"/>
			<point x="561" y="131.546"/>
			<point x="561" y="236" type="curve" smooth="yes"/>
			<point x="561" y="367.784"/>
			<point x="385.149" y="478.66"/>
			<point x="190.769" y="478.66" type="curve" smooth="yes"/>
			<point x="167.975" y="478.66"/>
			<point x="145.467" y="476.835"/>
			<point x="124.774" y="473.295" type="curve" smooth="yes"/>
			<point x="96.017" y="468.857"/>
			<point x="74" y="444"/>
			<point x="74" y="414" type="curve" smooth="yes"/>
			<point x="74" y="380.863"/>
			<point x="100.863" y="354"/>
			<point x="134" y="354" type="curve" smooth="yes"/>
			<point x="137.862" y="354"/>
			<point x="141.639" y="354.365"/>
			<point x="145.299" y="355.062" type="curve" smooth="yes"/>
			<point x="159.484" y="357.475"/>
			<point x="174.383" y="358.66"/>
			<point x="190.769" y="358.66" type="curve" smooth="yes"/>
			<point x="312.545" y="358.66"/>
			<point x="441" y="291.207"/>
			<point x="441" y="236" type="curve" smooth="yes"/>
			<point x="441" y="227.998"/>
			<point x="300.475" y="188.852"/>
			<point x="221.081" y="188.852" type="curve" smooth="yes"/>
			<point x="210.364" y="188.852"/>
			<point x="200.153" y="189.201"/>
			<point x="190.493" y="189.834" type="curve" smooth="yes"/>
			<point x="189.01" y="189.944"/>
			<point x="187.511" y="190"/>
			<point x="186" y="190" type="curve" smooth="yes"/>
			<point x="152.863" y="190"/>
			<point x="126" y="163.137"/>
			<point x="126" y="130" type="curve" smooth="yes"/>
			<point x="126" y="98.022"/>
			<point x="151.016" y="71.888"/>
			<point x="182.545" y="70.098" type="curve" smooth="yes"/>
			<point x="195.493" y="69.247"/>
			<point x="208.367" y="68.852"/>
		</contour>
	</outline>
</glyph>
<glyph name="q" format="2">
	<unicode hex="0071"/>
	<advance width="620"/>
	<outline>
		<contour>
			<point x="472" y="319" type="curve" smooth="yes"/>
			<point x="505" y="319"/>
			<point x="532" y="346"/>
			<point x="532" y="379" type="curve" smooth="yes"/>
			<point x="532" y="396"/>
			<point x="525" y="411"/>
			<point x="514" y="422" type="curve" smooth="yes"/>
			<point x="467" y="468"/>
			<point x="418" y="500"/>
			<point x="369" y="500" type="curve" smooth="yes"/>
			<point x="227.746" y="500"/>
			<point x="55" y="313.382"/>
			<point x="55" y="162" type="curve" smooth="yes"/>
			<point x="55" y="43.573"/>
			<point x="128.694" y="-37"/>
			<point x="240" y="-37" type="curve" smooth="yes"/>
			<point x="317.335" y="-37"/>
			<point x="393.294" y="-4.417"/>
			<point x="455.053" y="47.609" type="curve"/>
			<point x="455.41" y="25.598"/>
			<point x="455.965" y="3.522"/>
			<point x="456.524" y="-18.678" type="curve" smooth="yes"/>
			<point x="457.519" y="-58.253"/>
			<point x="458.526" y="-98.316"/>
			<point x="458.526" y="-140.852" type="curve" smooth="yes"/>
			<point x="458.526" y="-155.481"/>
			<point x="458.407" y="-169.421"/>
			<point x="458.174" y="-182.902" type="curve" smooth="yes"/>
			<point x="457" y="-225"/>
			<point x="479" y="-252"/>
			<point x="518" y="-252" type="curve" smooth="yes"/>
			<point x="551" y="-252"/>
			<point x="581" y="-234"/>
			<point x="596" y="-222" type="curve" smooth="yes"/>
			<point x="608" y="-212"/>
			<point x="678" y="-160"/>
			<point x="703" y="-138" type="curve" smooth="yes"/>
			<point x="715" y="-127"/>
			<point x="723" y="-111"/>
			<point x="723" y="-93" type="curve" smooth="yes"/>
			<point x="723" y="-60"/>
			<point x="696" y="-33"/>
			<point x="663" y="-33" type="curve" smooth="yes"/>
			<point x="647" y="-33"/>
			<point x="633" y="-39"/>
			<point x="622" y="-49" type="curve" smooth="yes"/>
			<point x="610" y="-60"/>
			<point x="599" y="-69"/>
			<point x="584" y="-79" type="curve" smooth="yes"/>
			<point x="578" y="-83" type="line"/>
			<point x="578" y="-55"/>
			<point x="577.154" y="-42.222"/>
			<point x="576.486" y="-15.661" type="curve" smooth="yes"/>
			<point x="575.549" y="21.577"/>
			<point x="574.66" y="56.962"/>
			<point x="574.66" y="92.273" type="curve" smooth="yes"/>
			<point x="574.66" y="146.655"/>
			<point x="576.936" y="193.6"/>
			<point x="581.876" y="238.076" type="curve"/>
			<point x="586.539" y="253.702"/>
			<point x="592" y="275"/>
			<point x="592" y="294" type="curve" smooth="yes"/>
			<point x="592" y="334"/>
			<point x="570" y="358"/>
			<point x="537" y="358" type="curve" smooth="yes"/>
			<point x="490" y="358"/>
			<point x="470" y="320"/>
			<point x="464" y="264" type="curve"/>
			<point x="431" y="166"/>
			<point x="334" y="83"/>
			<point x="240" y="83" type="curve" smooth="yes"/>
			<point x="198" y="83"/>
			<point x="175" y="108"/>
			<point x="175" y="162" type="curve" smooth="yes"/>
			<point x="175" y="247"/>
			<point x="296" y="380"/>
			<point x="369" y="380" type="curve" smooth="yes"/>
			<point x="381" y="380"/>
			<point x="411" y="355"/>
			<point x="430" y="336" type="curve" smooth="yes"/>
			<point x="441" y="325"/>
			<point x="456" y="319"/>
		</contour>
	</outline>
</glyph>
<glyph name="r" format="2">
	<unicode hex="0072"/>
	<advance width="500"/>
	<outline>
		<contour>
			<point x="141" y="485" type="curve" smooth="yes"/>
			<point x="122" y="512"/>
			<point x="84" y="519"/>
			<point x="57" y="501" type="curve" smooth="yes"/>
			<point x="30" y="482"/>
			<point x="24" y="444"/>
			<point x="41" y="417" type="curve" smooth="yes"/>
			<point x="85" y="349"/>
			<point x="94" y="167"/>
			<point x="94" y="48" type="curve" smooth="yes"/>
			<point x="94" y="9"/>
			<point x="124" y="-11"/>
			<point x="154" y="-11" type="curve" smooth="yes"/>
			<point x="182" y="-11"/>
			<point x="210" y="6"/>
			<point x="214" y="43" type="curve" smooth="yes"/>
			<point x="234" y="251"/>
			<point x="259" y="304"/>
			<point x="452" y="396" type="curve" smooth="yes"/>
			<point x="481" y="410"/>
			<point x="494" y="446"/>
			<point x="480" y="476" type="curve" smooth="yes"/>
			<point x="466" y="505"/>
			<point x="430" y="518"/>
			<point x="400" y="504" type="curve" smooth="yes"/>
			<point x="294" y="454"/>
			<point x="230" y="411"/>
			<point x="165" y="338" type="curve" smooth="yes"/>
			<point x="135" y="305"/>
			<point x="198" y="291"/>
			<point x="190" y="332" type="curve" smooth="yes"/>
			<point x="175" y="413"/>
			<point x="159" y="459"/>
		</contour>
	</outline>
</glyph>
<glyph name="s" format="2">
	<unicode hex="0073"/>
	<advance width="519"/>
	<outline>
		<contour>
			<point x="359" y="390" type="curve" smooth="yes"/>
			<point x="255" y="390"/>
			<point x="199" y="379"/>
			<point x="160" y="332" type="curve" smooth="yes"/>
			<point x="141" y="309"/>
			<point x="149" y="393"/>
			<point x="161" y="376" type="curve" smooth="yes"/>
			<point x="223" y="291"/>
			<point x="489" y="313"/>
			<point x="489" y="166" type="curve" smooth="yes"/>
			<point x="489" y="69"/>
			<point x="389" y="-10"/>
			<point x="138" y="-10" type="curve" smooth="yes"/>
			<point x="52" y="-10"/>
			<point x="15" y="21"/>
			<point x="22" y="68" type="curve" smooth="yes"/>
			<point x="26" y="93"/>
			<point x="56" y="117"/>
			<point x="88" y="112" type="curve" smooth="yes"/>
			<point x="151" y="104"/>
			<point x="369" y="106"/>
			<point x="373" y="192" type="curve" smooth="yes"/>
			<point x="374" y="221"/>
			<point x="416" y="129"/>
			<point x="393" y="149" type="curve" smooth="yes"/>
			<point x="317" y="216"/>
			<point x="61" y="211"/>
			<point x="61" y="354" type="curve" smooth="yes"/>
			<point x="61" y="445"/>
			<point x="181" y="513"/>
			<point x="361" y="510" type="curve" smooth="yes"/>
			<point x="394" y="509"/>
			<point x="421" y="481"/>
			<point x="420" y="449" type="curve" smooth="yes"/>
			<point x="419" y="416"/>
			<point x="391" y="390"/>
		</contour>
	</outline>
</glyph>
<glyph name="t" format="2">
	<unicode hex="0074"/>
	<advance width="488"/>
	<outline>
		<contour>
			<point x="162" y="396" type="curve" smooth="yes"/>
			<point x="162" y="496"/>
			<point x="168" y="600"/>
			<point x="168" y="637" type="curve" smooth="yes"/>
			<point x="168" y="685"/>
			<point x="165" y="723"/>
			<point x="159" y="755" type="curve" smooth="yes"/>
			<point x="154" y="783"/>
			<point x="130" y="805"/>
			<point x="100" y="805" type="curve" smooth="yes"/>
			<point x="67" y="805"/>
			<point x="40" y="778"/>
			<point x="40" y="745" type="curve" smooth="yes"/>
			<point x="40" y="715"/>
			<point x="48" y="678"/>
			<point x="48" y="637" type="curve" smooth="yes"/>
			<point x="48" y="602"/>
			<point x="41" y="436"/>
			<point x="41" y="391" type="curve" smooth="yes"/>
			<point x="41" y="181"/>
			<point x="172" y="-15"/>
			<point x="320" y="-15" type="curve" smooth="yes"/>
			<point x="371" y="-15"/>
			<point x="440" y="10"/>
			<point x="440" y="63" type="curve" smooth="yes"/>
			<point x="440" y="96"/>
			<point x="413" y="123"/>
			<point x="380" y="123" type="curve" smooth="yes"/>
			<point x="351" y="123"/>
			<point x="345" y="105"/>
			<point x="320" y="105" type="curve" smooth="yes"/>
			<point x="239" y="105"/>
			<point x="162" y="271"/>
		</contour>
		<contour>
			<point x="160" y="327" type="curve" smooth="yes"/>
			<point x="229" y="353"/>
			<point x="304" y="377"/>
			<point x="397" y="383" type="curve" smooth="yes"/>
			<point x="428" y="385"/>
			<point x="453" y="411"/>
			<point x="453" y="443" type="curve" smooth="yes"/>
			<point x="453" y="476"/>
			<point x="426" y="503"/>
			<point x="393" y="503" type="curve" smooth="yes"/>
			<point x="328" y="503"/>
			<point x="218" y="473"/>
			<point x="147" y="449" type="curve" smooth="yes"/>
			<point x="90" y="425"/>
			<point x="82" y="401"/>
			<point x="82" y="368" type="curve" smooth="yes"/>
			<point x="82" y="332"/>
			<point x="119" y="311"/>
		</contour>
	</outline>
</glyph>
<glyph name="u" format="2">
	<unicode hex="0075"/>
	<advance width="572"/>
	<outline>
		<contour>
			<point x="293" y="-10" type="curve" smooth="yes"/>
			<point x="441" y="-10"/>
			<point x="527" y="128"/>
			<point x="527" y="368" type="curve" smooth="yes"/>
			<point x="527" y="442"/>
			<point x="529" y="510"/>
			<point x="464" y="510" type="curve" smooth="yes"/>
			<point x="431" y="510"/>
			<point x="404" y="483"/>
			<point x="404" y="450" type="curve" smooth="yes"/>
			<point x="404" y="423"/>
			<point x="407" y="396"/>
			<point x="407" y="368" type="curve" smooth="yes"/>
			<point x="407" y="198"/>
			<point x="360" y="110"/>
			<point x="293" y="110" type="curve" smooth="yes"/>
			<point x="239" y="110"/>
			<point x="158" y="214"/>
			<point x="158" y="300" type="curve" smooth="yes"/>
			<point x="158" y="383"/>
			<point x="186" y="429"/>
			<point x="186" y="450" type="curve" smooth="yes"/>
			<point x="186" y="483"/>
			<point x="159" y="510"/>
			<point x="126" y="510" type="curve" smooth="yes"/>
			<point x="100" y="510"/>
			<point x="78" y="493"/>
			<point x="70" y="470" type="curve" smooth="yes"/>
			<point x="48" y="414"/>
			<point x="38" y="361"/>
			<point x="38" y="300" type="curve" smooth="yes"/>
			<point x="38" y="147"/>
			<point x="169" y="-10"/>
		</contour>
	</outline>
</glyph>
<glyph name="v" format="2">
	<unicode hex="0076"/>
	<advance width="537"/>
	<outline>
		<contour>
			<point x="199" y="24" type="curve" smooth="yes"/>
			<point x="214" y="1"/>
			<point x="237" y="-11"/>
			<point x="261" y="-11" type="curve" smooth="yes"/>
			<point x="286" y="-11"/>
			<point x="310" y="3"/>
			<point x="319" y="28" type="curve" smooth="yes"/>
			<point x="371" y="193"/>
			<point x="424" y="287"/>
			<point x="522" y="414" type="curve" smooth="yes"/>
			<point x="530" y="424"/>
			<point x="535" y="437"/>
			<point x="535" y="451" type="curve" smooth="yes"/>
			<point x="535" y="484"/>
			<point x="508" y="511"/>
			<point x="475" y="511" type="curve" smooth="yes"/>
			<point x="455" y="511"/>
			<point x="438" y="502"/>
			<point x="427" y="487" type="curve" smooth="yes"/>
			<point x="347" y="383"/>
			<point x="286" y="274"/>
			<point x="233" y="151" type="curve" smooth="yes"/>
			<point x="222" y="125"/>
			<point x="271" y="120"/>
			<point x="257" y="153" type="curve" smooth="yes"/>
			<point x="236" y="201"/>
			<point x="217" y="252"/>
			<point x="199" y="302" type="curve" smooth="yes"/>
			<point x="171" y="377"/>
			<point x="149" y="445"/>
			<point x="106" y="491" type="curve" smooth="yes"/>
			<point x="95" y="502"/>
			<point x="80" y="510"/>
			<point x="62" y="510" type="curve" smooth="yes"/>
			<point x="29" y="510"/>
			<point x="2" y="483"/>
			<point x="2" y="450" type="curve" smooth="yes"/>
			<point x="2" y="434"/>
			<point x="9" y="419"/>
			<point x="19" y="408" type="curve" smooth="yes"/>
			<point x="39" y="387"/>
			<point x="50" y="359"/>
			<point x="86" y="262" type="curve" smooth="yes"/>
			<point x="113" y="188"/>
			<point x="155" y="93"/>
		</contour>
	</outline>
</glyph>
<glyph name="w" format="2">
	<unicode hex="0077"/>
	<advance width="990"/>
	<outline>
		<contour>
			<point x="267" y="9" type="curve" smooth="yes"/>
			<point x="337.777" y="9"/>
			<point x="377.344" y="75.39"/>
			<point x="429.155" y="177.875" type="curve" smooth="yes"/>
			<point x="435.739" y="190.899"/>
			<point x="480.66" y="277"/>
			<point x="480" y="277" type="curve" smooth="yes"/>
			<point x="485.612" y="277"/>
			<point x="509.619" y="256.624"/>
			<point x="564.455" y="188.029" type="curve" smooth="yes"/>
			<point x="620.537" y="117.874"/>
			<point x="700.379" y="18"/>
			<point x="803" y="18" type="curve" smooth="yes"/>
			<point x="883.813" y="18"/>
			<point x="901.148" y="103.256"/>
			<point x="917.545" y="214.935" type="curve" smooth="yes"/>
			<point x="929.744" y="298.024"/>
			<point x="944.673" y="348.004"/>
			<point x="946.975" y="349.982" type="curve"/>
			<point x="968.179" y="359.235"/>
			<point x="983" y="380.387"/>
			<point x="983" y="405" type="curve" smooth="yes"/>
			<point x="983" y="438.137"/>
			<point x="956.137" y="465"/>
			<point x="923" y="465" type="curve" smooth="yes"/>
			<point x="913.765" y="465"/>
			<point x="905.017" y="462.913"/>
			<point x="897.202" y="459.186" type="curve" smooth="yes"/>
			<point x="833.95" y="430.257"/>
			<point x="816.516" y="352.914"/>
			<point x="798.817" y="232.366" type="curve" smooth="yes"/>
			<point x="790.904" y="178.473"/>
			<point x="779.019" y="154.952"/>
			<point x="775.789" y="144.868" type="curve"/>
			<point x="748.638" y="158.219"/>
			<point x="714.323" y="192.736"/>
			<point x="658.185" y="262.959" type="curve" smooth="yes"/>
			<point x="589.259" y="349.18"/>
			<point x="544.226" y="397"/>
			<point x="480" y="397" type="curve" smooth="yes"/>
			<point x="410.809" y="397"/>
			<point x="372.3" y="331.389"/>
			<point x="322.062" y="232.015" type="curve" smooth="yes"/>
			<point x="314.39" y="216.84"/>
			<point x="267.86" y="131.778"/>
			<point x="267.005" y="129.066" type="curve"/>
			<point x="266.582" y="131.839"/>
			<point x="232.924" y="220.574"/>
			<point x="226.32" y="239.863" type="curve" smooth="yes"/>
			<point x="201.14" y="313.406"/>
			<point x="168.179" y="409.671"/>
			<point x="108.424" y="478.202" type="curve" smooth="yes"/>
			<point x="97.421" y="490.939"/>
			<point x="81.152" y="499"/>
			<point x="63" y="499" type="curve" smooth="yes"/>
			<point x="29.863" y="499"/>
			<point x="3" y="472.137"/>
			<point x="3" y="439" type="curve" smooth="yes"/>
			<point x="3" y="423.833"/>
			<point x="8.627" y="409.981"/>
			<point x="17.908" y="399.417" type="curve" smooth="yes"/>
			<point x="62.236" y="348.642"/>
			<point x="87.591" y="274.589"/>
			<point x="112.79" y="200.992" type="curve" smooth="yes"/>
			<point x="153.964" y="80.737"/>
			<point x="186.724" y="9"/>
		</contour>
	</outline>
</glyph>
<glyph name="x" format="2">
	<unicode hex="0078"/>
	<advance width="600"/>
	<outline>
		<contour>
			<point x="434" y="-23" type="curve" smooth="yes"/>
			<point x="467.137" y="-23"/>
			<point x="494" y="3.863"/>
			<point x="494" y="37" type="curve" smooth="yes"/>
			<point x="494" y="50.726"/>
			<point x="489.391" y="63.376"/>
			<point x="481.636" y="73.486" type="curve" smooth="yes"/>
			<point x="391.209" y="194.273"/>
			<point x="240.987" y="355.195"/>
			<point x="137.823" y="441.748" type="curve" smooth="yes"/>
			<point x="127.359" y="450.637"/>
			<point x="113.806" y="456"/>
			<point x="99" y="456" type="curve" smooth="yes"/>
			<point x="65.863" y="456"/>
			<point x="39" y="429.137"/>
			<point x="39" y="396" type="curve" smooth="yes"/>
			<point x="39" y="377.424"/>
			<point x="47.442" y="360.82"/>
			<point x="60.699" y="349.814" type="curve" smooth="yes"/>
			<point x="157.485" y="268.614"/>
			<point x="300.024" y="115.832"/>
			<point x="385.536" y="1.621" type="curve" smooth="yes"/>
			<point x="396.45" y="-13.305"/>
			<point x="414.093" y="-23"/>
		</contour>
		<contour>
			<point x="146" y="-161" type="curve" smooth="yes"/>
			<point x="176.654" y="-161"/>
			<point x="201.938" y="-138.012"/>
			<point x="205.556" y="-108.336" type="curve" smooth="yes"/>
			<point x="230.114" y="70.101"/>
			<point x="349.965" y="250.738"/>
			<point x="510.981" y="351.607" type="curve" smooth="yes"/>
			<point x="528.373" y="362.114"/>
			<point x="540" y="381.199"/>
			<point x="540" y="403" type="curve" smooth="yes"/>
			<point x="540" y="436.137"/>
			<point x="513.137" y="463"/>
			<point x="480" y="463" type="curve" smooth="yes"/>
			<point x="467.993" y="463"/>
			<point x="456.81" y="459.473"/>
			<point x="447.43" y="453.398" type="curve" smooth="yes"/>
			<point x="257.18" y="334.276"/>
			<point x="116.04" y="121.068"/>
			<point x="86.69" y="-91.87" type="curve" smooth="yes"/>
			<point x="86.236" y="-94.847"/>
			<point x="86" y="-97.896"/>
			<point x="86" y="-101" type="curve" smooth="yes"/>
			<point x="86" y="-134.137"/>
			<point x="112.863" y="-161"/>
		</contour>
	</outline>
</glyph>
<glyph name="y" format="2">
	<unicode hex="0079"/>
	<advance width="600"/>
	<outline>
		<contour>
			<point x="320.6" y="-233.984" type="curve" smooth="yes"/>
			<point x="447.727" y="-233.984"/>
			<point x="532" y="-121.232"/>
			<point x="532" y="45" type="curve" smooth="yes"/>
			<point x="532" y="124.115"/>
			<point x="525.533" y="184.43"/>
			<point x="519.741" y="238.455" type="curve" smooth="yes"/>
			<point x="514.546" y="286.918"/>
			<point x="509.959" y="329.696"/>
			<point x="509.959" y="381.28" type="curve" smooth="yes"/>
			<point x="510" y="436"/>
			<point x="494" y="462"/>
			<point x="448" y="462" type="curve" smooth="yes"/>
			<point x="413" y="462"/>
			<point x="396" y="442"/>
			<point x="380.826" y="393.367" type="curve" smooth="yes"/>
			<point x="355.94" y="314.094"/>
			<point x="299.032" y="263"/>
			<point x="233" y="263" type="curve" smooth="yes"/>
			<point x="213.91" y="263"/>
			<point x="194.957" y="304.92"/>
			<point x="194.957" y="381.246" type="curve" smooth="yes"/>
			<point x="194.957" y="402.29"/>
			<point x="196.454" y="424.97"/>
			<point x="199.415" y="448.587" type="curve" smooth="yes"/>
			<point x="199.801" y="451.336"/>
			<point x="200" y="454.145"/>
			<point x="200" y="457" type="curve" smooth="yes"/>
			<point x="200" y="490.137"/>
			<point x="173.137" y="517"/>
			<point x="140" y="517" type="curve" smooth="yes"/>
			<point x="109.14" y="517"/>
			<point x="83.722" y="493.702"/>
			<point x="80.374" y="463.736" type="curve" smooth="yes"/>
			<point x="76.775" y="435.094"/>
			<point x="74.957" y="407.48"/>
			<point x="74.957" y="381.246" type="curve" smooth="yes"/>
			<point x="74.957" y="242.012"/>
			<point x="129.346" y="143"/>
			<point x="233" y="143" type="curve" smooth="yes"/>
			<point x="297.01" y="143"/>
			<point x="355.42" y="167.137"/>
			<point x="402.216" y="208.882" type="curve"/>
			<point x="407.351" y="160.28"/>
			<point x="412" y="110.182"/>
			<point x="412" y="45" type="curve" smooth="yes"/>
			<point x="412" y="-55.799"/>
			<point x="374.72" y="-113.984"/>
			<point x="320.6" y="-113.984" type="curve" smooth="yes"/>
			<point x="309.413" y="-113.984"/>
			<point x="300.718" y="-112.402"/>
			<point x="288.916" y="-108.129" type="curve" smooth="yes"/>
			<point x="282.127" y="-105.464"/>
			<point x="274.734" y="-104"/>
			<point x="267" y="-104" type="curve" smooth="yes"/>
			<point x="233.863" y="-104"/>
			<point x="207" y="-130.863"/>
			<point x="207" y="-164" type="curve" smooth="yes"/>
			<point x="207" y="-190.411"/>
			<point x="224.065" y="-212.837"/>
			<point x="247.771" y="-220.852" type="curve" smooth="yes"/>
			<point x="270.865" y="-229.175"/>
			<point x="297.451" y="-233.984"/>
		</contour>
	</outline>
</glyph>
<glyph name="z" format="2">
	<unicode hex="007A"/>
	<advance width="600"/>
	<outline>
		<contour>
			<point x="110" y="477" type="curve" smooth="yes"/>
			<point x="174" y="495"/>
			<point x="260" y="509"/>
			<point x="330" y="509" type="curve" smooth="yes"/>
			<point x="513" y="509"/>
			<point x="528" y="447"/>
			<point x="528" y="378" type="curve" smooth="yes"/>
			<point x="528" y="324"/>
			<point x="450" y="187"/>
			<point x="178" y="94" type="curve" smooth="yes"/>
			<point x="140" y="81"/>
			<point x="158" y="134"/>
			<point x="184" y="119" type="curve" smooth="yes"/>
			<point x="203" y="108"/>
			<point x="213" y="108"/>
			<point x="228" y="108" type="curve" smooth="yes"/>
			<point x="326" y="108"/>
			<point x="450" y="119"/>
			<point x="533" y="120" type="curve" smooth="yes"/>
			<point x="566" y="120"/>
			<point x="594" y="93"/>
			<point x="594" y="61" type="curve" smooth="yes"/>
			<point x="594" y="28"/>
			<point x="567" y="0"/>
			<point x="535" y="0" type="curve" smooth="yes"/>
			<point x="452" y="-1"/>
			<point x="326" y="-12"/>
			<point x="228" y="-12" type="curve" smooth="yes"/>
			<point x="75" y="-12"/>
			<point x="60" y="81"/>
			<point x="74" y="152" type="curve" smooth="yes"/>
			<point x="78" y="172"/>
			<point x="93" y="189"/>
			<point x="112" y="196" type="curve" smooth="yes"/>
			<point x="294" y="263"/>
			<point x="408" y="338"/>
			<point x="408" y="378" type="curve" smooth="yes"/>
			<point x="408" y="386"/>
			<point x="400" y="389"/>
			<point x="330" y="389" type="curve" smooth="yes"/>
			<point x="270" y="389"/>
			<point x="198" y="377"/>
			<point x="142" y="361" type="curve" smooth="yes"/>
			<point x="111" y="352"/>
			<point x="77" y="371"/>
			<point x="68" y="403" type="curve" smooth="yes"/>
			<point x="59" y="434"/>
			<point x="78" y="468"/>
		</contour>
	</outline>
</glyph>
